<?xml version="1.0" encoding="UTF-8" standalone="no"?>
<!DOCTYPE svg PUBLIC "-//W3C//DTD SVG 1.1//EN"
 "http://www.w3.org/Graphics/SVG/1.1/DTD/svg11.dtd">
<!-- Generated by graphviz version 12.1.0 (20240811.2233)
 -->
<!-- Title: dependency&#45;cruiser output Pages: 1 -->
<svg width="622pt" height="1287pt"
 viewBox="0.00 0.00 622.25 1287.29" xmlns="http://www.w3.org/2000/svg" xmlns:xlink="http://www.w3.org/1999/xlink">
<g id="graph0" class="graph" transform="scale(1 1) rotate(0) translate(4 1283.29)">
<title>dependency&#45;cruiser output</title>
<polygon fill="white" stroke="none" points="-4,4 -4,-1283.29 618.25,-1283.29 618.25,4 -4,4"/>
<g id="clust1" class="cluster">
<title>cluster_app</title>
<path fill="#ffffff" stroke="black" stroke-width="2" d="M20,-743.41C20,-743.41 399.38,-743.41 399.38,-743.41 405.38,-743.41 411.38,-749.41 411.38,-755.41 411.38,-755.41 411.38,-1211.41 411.38,-1211.41 411.38,-1217.41 405.38,-1223.41 399.38,-1223.41 399.38,-1223.41 20,-1223.41 20,-1223.41 14,-1223.41 8,-1217.41 8,-1211.41 8,-1211.41 8,-755.41 8,-755.41 8,-749.41 14,-743.41 20,-743.41"/>
<text text-anchor="middle" x="209.69" y="-1210.86" font-family="Helvetica,sans-Serif" font-weight="bold" font-size="9.00">app</text>
</g>
<g id="clust2" class="cluster">
<title>cluster_app/(dashboard)</title>
<path fill="#ffffff" stroke="black" stroke-width="2" d="M36,-1025.41C36,-1025.41 391.38,-1025.41 391.38,-1025.41 397.38,-1025.41 403.38,-1031.41 403.38,-1037.41 403.38,-1037.41 403.38,-1185.41 403.38,-1185.41 403.38,-1191.41 397.38,-1197.41 391.38,-1197.41 391.38,-1197.41 36,-1197.41 36,-1197.41 30,-1197.41 24,-1191.41 24,-1185.41 24,-1185.41 24,-1037.41 24,-1037.41 24,-1031.41 30,-1025.41 36,-1025.41"/>
<text text-anchor="middle" x="213.69" y="-1184.86" font-family="Helvetica,sans-Serif" font-weight="bold" font-size="9.00">(dashboard)</text>
</g>
<g id="clust3" class="cluster">
<title>cluster_app/(dashboard)/customers</title>
<path fill="#ffffff" stroke="black" stroke-width="2" d="M44,-1119.41C44,-1119.41 90,-1119.41 90,-1119.41 96,-1119.41 102,-1125.41 102,-1131.41 102,-1131.41 102,-1159.41 102,-1159.41 102,-1165.41 96,-1171.41 90,-1171.41 90,-1171.41 44,-1171.41 44,-1171.41 38,-1171.41 32,-1165.41 32,-1159.41 32,-1159.41 32,-1131.41 32,-1131.41 32,-1125.41 38,-1119.41 44,-1119.41"/>
<text text-anchor="middle" x="67" y="-1158.86" font-family="Helvetica,sans-Serif" font-weight="bold" font-size="9.00">customers</text>
</g>
<g id="clust4" class="cluster">
<title>cluster_app/api</title>
<path fill="#ffffff" stroke="black" stroke-width="2" d="M28,-751.41C28,-751.41 106,-751.41 106,-751.41 112,-751.41 118,-757.41 118,-763.41 118,-763.41 118,-919.41 118,-919.41 118,-925.41 112,-931.41 106,-931.41 106,-931.41 28,-931.41 28,-931.41 22,-931.41 16,-925.41 16,-919.41 16,-919.41 16,-763.41 16,-763.41 16,-757.41 22,-751.41 28,-751.41"/>
<text text-anchor="middle" x="67" y="-918.86" font-family="Helvetica,sans-Serif" font-weight="bold" font-size="9.00">api</text>
</g>
<g id="clust5" class="cluster">
<title>cluster_app/api/auth</title>
<path fill="#ffffff" stroke="black" stroke-width="2" d="M36,-759.41C36,-759.41 98,-759.41 98,-759.41 104,-759.41 110,-765.41 110,-771.41 110,-771.41 110,-833.41 110,-833.41 110,-839.41 104,-845.41 98,-845.41 98,-845.41 36,-845.41 36,-845.41 30,-845.41 24,-839.41 24,-833.41 24,-833.41 24,-771.41 24,-771.41 24,-765.41 30,-759.41 36,-759.41"/>
<text text-anchor="middle" x="67" y="-832.86" font-family="Helvetica,sans-Serif" font-weight="bold" font-size="9.00">auth</text>
</g>
<g id="clust6" class="cluster">
<title>cluster_app/api/auth/[...nextauth]</title>
<path fill="#ffffff" stroke="black" stroke-width="2" d="M44,-767.41C44,-767.41 90,-767.41 90,-767.41 96,-767.41 102,-773.41 102,-779.41 102,-779.41 102,-807.41 102,-807.41 102,-813.41 96,-819.41 90,-819.41 90,-819.41 44,-819.41 44,-819.41 38,-819.41 32,-813.41 32,-807.41 32,-807.41 32,-779.41 32,-779.41 32,-773.41 38,-767.41 44,-767.41"/>
<text text-anchor="middle" x="67" y="-806.86" font-family="Helvetica,sans-Serif" font-weight="bold" font-size="9.00">[...nextauth]</text>
</g>
<g id="clust7" class="cluster">
<title>cluster_app/api/seed</title>
<path fill="#ffffff" stroke="black" stroke-width="2" d="M44,-853.41C44,-853.41 90,-853.41 90,-853.41 96,-853.41 102,-859.41 102,-865.41 102,-865.41 102,-893.41 102,-893.41 102,-899.41 96,-905.41 90,-905.41 90,-905.41 44,-905.41 44,-905.41 38,-905.41 32,-899.41 32,-893.41 32,-893.41 32,-865.41 32,-865.41 32,-859.41 38,-853.41 44,-853.41"/>
<text text-anchor="middle" x="67" y="-892.86" font-family="Helvetica,sans-Serif" font-weight="bold" font-size="9.00">seed</text>
</g>
<g id="clust8" class="cluster">
<title>cluster_app/login</title>
<path fill="#ffffff" stroke="black" stroke-width="2" d="M44,-939.41C44,-939.41 90,-939.41 90,-939.41 96,-939.41 102,-945.41 102,-951.41 102,-951.41 102,-979.41 102,-979.41 102,-985.41 96,-991.41 90,-991.41 90,-991.41 44,-991.41 44,-991.41 38,-991.41 32,-985.41 32,-979.41 32,-979.41 32,-951.41 32,-951.41 32,-945.41 38,-939.41 44,-939.41"/>
<text text-anchor="middle" x="67" y="-978.86" font-family="Helvetica,sans-Serif" font-weight="bold" font-size="9.00">login</text>
</g>
<g id="clust9" class="cluster">
<title>cluster_components</title>
<path fill="#ffffff" stroke="black" stroke-width="2" d="M315.75,-275.41C315.75,-275.41 420.75,-275.41 420.75,-275.41 426.75,-275.41 432.75,-281.41 432.75,-287.41 432.75,-287.41 432.75,-645.41 432.75,-645.41 432.75,-651.41 426.75,-657.41 420.75,-657.41 420.75,-657.41 315.75,-657.41 315.75,-657.41 309.75,-657.41 303.75,-651.41 303.75,-645.41 303.75,-645.41 303.75,-287.41 303.75,-287.41 303.75,-281.41 309.75,-275.41 315.75,-275.41"/>
<text text-anchor="middle" x="368.25" y="-644.86" font-family="Helvetica,sans-Serif" font-weight="bold" font-size="9.00">components</text>
</g>
<g id="clust10" class="cluster">
<title>cluster_components/ui</title>
<path fill="#ffffff" stroke="black" stroke-width="2" d="M323.75,-309.41C323.75,-309.41 412.75,-309.41 412.75,-309.41 418.75,-309.41 424.75,-315.41 424.75,-321.41 424.75,-321.41 424.75,-619.41 424.75,-619.41 424.75,-625.41 418.75,-631.41 412.75,-631.41 412.75,-631.41 323.75,-631.41 323.75,-631.41 317.75,-631.41 311.75,-625.41 311.75,-619.41 311.75,-619.41 311.75,-321.41 311.75,-321.41 311.75,-315.41 317.75,-309.41 323.75,-309.41"/>
<text text-anchor="middle" x="368.25" y="-618.86" font-family="Helvetica,sans-Serif" font-weight="bold" font-size="9.00">ui</text>
</g>
<g id="clust11" class="cluster">
<title>cluster_lib</title>
<path fill="#ffffff" stroke="black" stroke-width="2" d="M459.5,-579.41C459.5,-579.41 505.5,-579.41 505.5,-579.41 511.5,-579.41 517.5,-585.41 517.5,-591.41 517.5,-591.41 517.5,-679.41 517.5,-679.41 517.5,-685.41 511.5,-691.41 505.5,-691.41 505.5,-691.41 459.5,-691.41 459.5,-691.41 453.5,-691.41 447.5,-685.41 447.5,-679.41 447.5,-679.41 447.5,-591.41 447.5,-591.41 447.5,-585.41 453.5,-579.41 459.5,-579.41"/>
<text text-anchor="middle" x="482.5" y="-678.86" font-family="Helvetica,sans-Serif" font-weight="bold" font-size="9.00">lib</text>
</g>
<g id="clust12" class="cluster">
<title>cluster_node_modules</title>
<path fill="#ffffff" stroke="black" stroke-width="2" d="M544.25,-482.41C544.25,-482.41 599.25,-482.41 599.25,-482.41 605.25,-482.41 611.25,-488.41 611.25,-494.41 611.25,-494.41 611.25,-522.41 611.25,-522.41 611.25,-528.41 605.25,-534.41 599.25,-534.41 599.25,-534.41 544.25,-534.41 544.25,-534.41 538.25,-534.41 532.25,-528.41 532.25,-522.41 532.25,-522.41 532.25,-494.41 532.25,-494.41 532.25,-488.41 538.25,-482.41 544.25,-482.41"/>
<text text-anchor="middle" x="571.75" y="-521.86" font-family="Helvetica,sans-Serif" font-weight="bold" font-size="9.00">node_modules</text>
</g>
<!-- .dependency&#45;cruiser.js -->
<g id="node1" class="node">
<title>.dependency&#45;cruiser.js</title>
<g id="a_node1"><a xlink:href=".dependency-cruiser.js" xlink:title=".dependency&#45;cruiser.js">
<path fill="#ccffcc" stroke="black" d="M115.58,-735.29C115.58,-735.29 18.42,-735.29 18.42,-735.29 15.46,-735.29 12.5,-732.33 12.5,-729.37 12.5,-729.37 12.5,-723.45 12.5,-723.45 12.5,-720.5 15.46,-717.54 18.42,-717.54 18.42,-717.54 115.58,-717.54 115.58,-717.54 118.54,-717.54 121.5,-720.5 121.5,-723.45 121.5,-723.45 121.5,-729.37 121.5,-729.37 121.5,-732.33 118.54,-735.29 115.58,-735.29"/>
<text text-anchor="middle" x="67" y="-722.74" font-family="Helvetica,sans-Serif" font-size="9.00">.dependency&#45;cruiser.js</text>
</a>
</g>
</g>
<!-- app/(dashboard)/actions.ts -->
<g id="node2" class="node">
<title>app/(dashboard)/actions.ts</title>
<g id="a_node2"><a xlink:href="app/(dashboard)/actions.ts" xlink:title="actions.ts">
<path fill="#ddfeff" stroke="black" d="M389.46,-1051.29C389.46,-1051.29 347.04,-1051.29 347.04,-1051.29 344.08,-1051.29 341.12,-1048.33 341.12,-1045.37 341.12,-1045.37 341.12,-1039.45 341.12,-1039.45 341.12,-1036.5 344.08,-1033.54 347.04,-1033.54 347.04,-1033.54 389.46,-1033.54 389.46,-1033.54 392.42,-1033.54 395.38,-1036.5 395.38,-1039.45 395.38,-1039.45 395.38,-1045.37 395.38,-1045.37 395.38,-1048.33 392.42,-1051.29 389.46,-1051.29"/>
<text text-anchor="start" x="349.12" y="-1038.74" font-family="Helvetica,sans-Serif" font-size="9.00">actions.ts</text>
</a>
</g>
</g>
<!-- lib/db.ts -->
<g id="node3" class="node">
<title>lib/db.ts</title>
<g id="a_node3"><a xlink:href="lib/db.ts" xlink:title="db.ts">
<path fill="#ddfeff" stroke="black" d="M503.58,-665.29C503.58,-665.29 461.42,-665.29 461.42,-665.29 458.46,-665.29 455.5,-662.33 455.5,-659.37 455.5,-659.37 455.5,-653.45 455.5,-653.45 455.5,-650.5 458.46,-647.54 461.42,-647.54 461.42,-647.54 503.58,-647.54 503.58,-647.54 506.54,-647.54 509.5,-650.5 509.5,-653.45 509.5,-653.45 509.5,-659.37 509.5,-659.37 509.5,-662.33 506.54,-665.29 503.58,-665.29"/>
<text text-anchor="start" x="472.75" y="-652.74" font-family="Helvetica,sans-Serif" font-size="9.00">db.ts</text>
</a>
</g>
</g>
<!-- app/(dashboard)/actions.ts&#45;&gt;lib/db.ts -->
<g id="edge1" class="edge">
<title>app/(dashboard)/actions.ts&#45;&gt;lib/db.ts</title>
<path fill="none" stroke="#000000" stroke-width="2" stroke-opacity="0.200000" d="M373.93,-1033.31C385.5,-1010.5 415.69,-948.84 432.75,-894.41 445.82,-852.71 469.67,-722.57 478.29,-674.5"/>
<polygon fill="#000000" fill-opacity="0.200000" stroke="#000000" stroke-width="2" stroke-opacity="0.200000" points="480.32,-675.04 479.31,-668.77 476.19,-674.3 480.32,-675.04"/>
</g>
<!-- node_modules/.pnpm -->
<g id="node4" class="node">
<title>node_modules/.pnpm</title>
<g id="a_node4"><a xlink:href="https://www.npmjs.com/package/.pnpm" xlink:title=".pnpm">
<polygon fill="#c40b0a" fill-opacity="0.101961" stroke="black" points="598.25,-508.29 546.22,-508.29 544.25,-506.31 544.25,-490.54 596.28,-490.54 598.25,-492.51 598.25,-508.29"/>
<polyline fill="none" stroke="black" points="596.28,-506.31 544.25,-506.31"/>
<polyline fill="none" stroke="black" points="596.28,-506.31 596.28,-490.54"/>
<polyline fill="none" stroke="black" points="596.28,-506.31 598.25,-508.29"/>
<text text-anchor="start" x="558.5" y="-495.74" font-family="Helvetica,sans-Serif" font-size="9.00" fill="#c40b0a">.pnpm</text>
</a>
</g>
</g>
<!-- app/(dashboard)/actions.ts&#45;&gt;node_modules/.pnpm -->
<g id="edge2" class="edge">
<title>app/(dashboard)/actions.ts&#45;&gt;node_modules/.pnpm</title>
<path fill="none" stroke="#000000" stroke-opacity="0.200000" d="M374.1,-1033.26C394.85,-993.79 477.21,-833.85 524.25,-694.41 546.07,-629.73 561.47,-549.61 567.47,-515.74"/>
<polygon fill="#000000" fill-opacity="0.200000" stroke="#000000" stroke-opacity="0.200000" points="569.51,-516.28 568.47,-510.01 565.37,-515.56 569.51,-516.28"/>
</g>
<!-- lib/db.ts&#45;&gt;node_modules/.pnpm -->
<g id="edge70" class="edge">
<title>lib/db.ts&#45;&gt;node_modules/.pnpm</title>
<path fill="none" stroke="#000000" stroke-opacity="0.200000" d="M509.72,-650.72C515.07,-648.54 520.28,-645.54 524.25,-641.41 558.23,-606.06 567.11,-545.4 569.43,-516.15"/>
<polygon fill="#000000" fill-opacity="0.200000" stroke="#000000" stroke-opacity="0.200000" points="571.52,-516.41 569.82,-510.29 567.33,-516.13 571.52,-516.41"/>
</g>
<!-- app/(dashboard)/customers/page.tsx -->
<g id="node5" class="node">
<title>app/(dashboard)/customers/page.tsx</title>
<g id="a_node5"><a xlink:href="app/(dashboard)/customers/page.tsx" xlink:title="page.tsx">
<path fill="#bbfeff" stroke="black" d="M88.08,-1145.29C88.08,-1145.29 45.92,-1145.29 45.92,-1145.29 42.96,-1145.29 40,-1142.33 40,-1139.37 40,-1139.37 40,-1133.45 40,-1133.45 40,-1130.5 42.96,-1127.54 45.92,-1127.54 45.92,-1127.54 88.08,-1127.54 88.08,-1127.54 91.04,-1127.54 94,-1130.5 94,-1133.45 94,-1133.45 94,-1139.37 94,-1139.37 94,-1142.33 91.04,-1145.29 88.08,-1145.29"/>
<text text-anchor="start" x="49.75" y="-1132.74" font-family="Helvetica,sans-Serif" font-size="9.00">page.tsx</text>
</a>
</g>
</g>
<!-- components/ui/card.tsx -->
<g id="node6" class="node">
<title>components/ui/card.tsx</title>
<g id="a_node6"><a xlink:href="components/ui/card.tsx" xlink:title="card.tsx">
<path fill="#bbfeff" stroke="black" d="M389.33,-425.29C389.33,-425.29 347.17,-425.29 347.17,-425.29 344.21,-425.29 341.25,-422.33 341.25,-419.37 341.25,-419.37 341.25,-413.45 341.25,-413.45 341.25,-410.5 344.21,-407.54 347.17,-407.54 347.17,-407.54 389.33,-407.54 389.33,-407.54 392.29,-407.54 395.25,-410.5 395.25,-413.45 395.25,-413.45 395.25,-419.37 395.25,-419.37 395.25,-422.33 392.29,-425.29 389.33,-425.29"/>
<text text-anchor="start" x="352.5" y="-412.74" font-family="Helvetica,sans-Serif" font-size="9.00">card.tsx</text>
</a>
</g>
</g>
<!-- app/(dashboard)/customers/page.tsx&#45;&gt;components/ui/card.tsx -->
<g id="edge3" class="edge">
<title>app/(dashboard)/customers/page.tsx&#45;&gt;components/ui/card.tsx</title>
<path fill="none" stroke="#000000" stroke-width="2" stroke-opacity="0.200000" d="M94.43,-1136.43C104.44,-1134.98 114.98,-1131.42 121.5,-1123.41 148.38,-1090.39 122.03,-781.13 134.5,-740.41 159.23,-659.64 181.37,-644.26 235.5,-579.41 258.74,-551.58 279.71,-556.93 295.75,-524.41 304.93,-505.81 290.19,-447.11 303.75,-431.41 310.86,-423.17 321.59,-419.01 332.2,-417.01"/>
<polygon fill="#000000" fill-opacity="0.200000" stroke="#000000" stroke-width="2" stroke-opacity="0.200000" points="332.35,-419.11 338.02,-416.22 331.79,-414.95 332.35,-419.11"/>
</g>
<!-- components/ui/card.tsx&#45;&gt;node_modules/.pnpm -->
<g id="edge56" class="edge">
<title>components/ui/card.tsx&#45;&gt;node_modules/.pnpm</title>
<path fill="none" stroke="#000000" stroke-opacity="0.200000" d="M395.67,-419.61C427.74,-424.35 482.7,-435.31 524.25,-458.41 536.79,-465.39 548.82,-476.31 557.43,-485.13"/>
<polygon fill="#000000" fill-opacity="0.200000" stroke="#000000" stroke-opacity="0.200000" points="555.63,-486.28 561.28,-489.2 558.68,-483.4 555.63,-486.28"/>
</g>
<!-- lib/utils.ts -->
<g id="node32" class="node">
<title>lib/utils.ts</title>
<g id="a_node32"><a xlink:href="lib/utils.ts" xlink:title="utils.ts">
<path fill="#ddfeff" stroke="black" d="M503.58,-635.29C503.58,-635.29 461.42,-635.29 461.42,-635.29 458.46,-635.29 455.5,-632.33 455.5,-629.37 455.5,-629.37 455.5,-623.45 455.5,-623.45 455.5,-620.5 458.46,-617.54 461.42,-617.54 461.42,-617.54 503.58,-617.54 503.58,-617.54 506.54,-617.54 509.5,-620.5 509.5,-623.45 509.5,-623.45 509.5,-629.37 509.5,-629.37 509.5,-632.33 506.54,-635.29 503.58,-635.29"/>
<text text-anchor="start" x="469.75" y="-622.74" font-family="Helvetica,sans-Serif" font-size="9.00">utils.ts</text>
</a>
</g>
</g>
<!-- components/ui/card.tsx&#45;&gt;lib/utils.ts -->
<g id="edge55" class="edge">
<title>components/ui/card.tsx&#45;&gt;lib/utils.ts</title>
<path fill="none" stroke="#000000" stroke-width="2" stroke-opacity="0.200000" d="M395.66,-415.66C408.86,-416.8 423.86,-420.68 432.75,-431.41 445.52,-446.83 428.94,-595.25 440.75,-611.41 442.64,-614 445.03,-616.14 447.69,-617.91"/>
<polygon fill="#000000" fill-opacity="0.200000" stroke="#000000" stroke-width="2" stroke-opacity="0.200000" points="446.26,-619.54 452.56,-620.41 448.18,-615.8 446.26,-619.54"/>
</g>
<!-- app/(dashboard)/error.tsx -->
<g id="node7" class="node">
<title>app/(dashboard)/error.tsx</title>
<g id="a_node7"><a xlink:href="app/(dashboard)/error.tsx" xlink:title="error.tsx">
<path fill="#bbfeff" stroke="black" d="M88.08,-1051.29C88.08,-1051.29 45.92,-1051.29 45.92,-1051.29 42.96,-1051.29 40,-1048.33 40,-1045.37 40,-1045.37 40,-1039.45 40,-1039.45 40,-1036.5 42.96,-1033.54 45.92,-1033.54 45.92,-1033.54 88.08,-1033.54 88.08,-1033.54 91.04,-1033.54 94,-1036.5 94,-1039.45 94,-1039.45 94,-1045.37 94,-1045.37 94,-1048.33 91.04,-1051.29 88.08,-1051.29"/>
<text text-anchor="start" x="50.5" y="-1038.74" font-family="Helvetica,sans-Serif" font-size="9.00">error.tsx</text>
</a>
</g>
</g>
<!-- app/(dashboard)/error.tsx&#45;&gt;node_modules/.pnpm -->
<g id="edge4" class="edge">
<title>app/(dashboard)/error.tsx&#45;&gt;node_modules/.pnpm</title>
<path fill="none" stroke="#000000" stroke-opacity="0.200000" d="M94.49,-1042.47C104.51,-1041.04 115.04,-1037.46 121.5,-1029.41 144.07,-1001.29 123.82,-414.86 134.5,-380.41 165.69,-279.83 159.32,-182.41 264.62,-182.41 264.62,-182.41 264.62,-182.41 369.25,-182.41 438.5,-182.41 474.1,-150.65 524.25,-198.41 565.66,-237.85 569.93,-425.63 570.26,-482.83"/>
<polygon fill="#000000" fill-opacity="0.200000" stroke="#000000" stroke-opacity="0.200000" points="568.16,-482.79 570.28,-488.78 572.36,-482.77 568.16,-482.79"/>
</g>
<!-- app/(dashboard)/layout.tsx -->
<g id="node8" class="node">
<title>app/(dashboard)/layout.tsx</title>
<g id="a_node8"><a xlink:href="app/(dashboard)/layout.tsx" xlink:title="layout.tsx">
<path fill="#bbfeff" stroke="black" d="M88.21,-1111.29C88.21,-1111.29 45.79,-1111.29 45.79,-1111.29 42.83,-1111.29 39.88,-1108.33 39.88,-1105.37 39.88,-1105.37 39.88,-1099.45 39.88,-1099.45 39.88,-1096.5 42.83,-1093.54 45.79,-1093.54 45.79,-1093.54 88.21,-1093.54 88.21,-1093.54 91.17,-1093.54 94.12,-1096.5 94.12,-1099.45 94.12,-1099.45 94.12,-1105.37 94.12,-1105.37 94.12,-1108.33 91.17,-1111.29 88.21,-1111.29"/>
<text text-anchor="start" x="47.88" y="-1098.74" font-family="Helvetica,sans-Serif" font-size="9.00">layout.tsx</text>
</a>
</g>
</g>
<!-- app/(dashboard)/layout.tsx&#45;&gt;node_modules/.pnpm -->
<g id="edge14" class="edge">
<title>app/(dashboard)/layout.tsx&#45;&gt;node_modules/.pnpm</title>
<path fill="none" stroke="#000000" stroke-opacity="0.200000" d="M94.56,-1101.41C104.58,-1099.59 115.1,-1095.64 121.5,-1087.41 139.58,-1064.16 126.35,-585.72 134.5,-557.41 175.24,-415.84 175.72,-345.29 303.75,-272.41 353.58,-244.05 377.14,-258.46 432.75,-272.41 477.49,-283.64 495.75,-285.14 524.25,-321.41 562.96,-370.67 569.35,-449.02 570.23,-482.91"/>
<polygon fill="#000000" fill-opacity="0.200000" stroke="#000000" stroke-opacity="0.200000" points="568.12,-482.68 570.32,-488.65 572.32,-482.61 568.12,-482.68"/>
</g>
<!-- app/(dashboard)/nav&#45;item.tsx -->
<g id="node9" class="node">
<title>app/(dashboard)/nav&#45;item.tsx</title>
<g id="a_node9"><a xlink:href="app/(dashboard)/nav-item.tsx" xlink:title="nav&#45;item.tsx">
<path fill="#bbfeff" stroke="black" d="M204.96,-1081.29C204.96,-1081.29 152.04,-1081.29 152.04,-1081.29 149.08,-1081.29 146.12,-1078.33 146.12,-1075.37 146.12,-1075.37 146.12,-1069.45 146.12,-1069.45 146.12,-1066.5 149.08,-1063.54 152.04,-1063.54 152.04,-1063.54 204.96,-1063.54 204.96,-1063.54 207.92,-1063.54 210.88,-1066.5 210.88,-1069.45 210.88,-1069.45 210.88,-1075.37 210.88,-1075.37 210.88,-1078.33 207.92,-1081.29 204.96,-1081.29"/>
<text text-anchor="start" x="154.12" y="-1068.74" font-family="Helvetica,sans-Serif" font-size="9.00">nav&#45;item.tsx</text>
</a>
</g>
</g>
<!-- app/(dashboard)/layout.tsx&#45;&gt;app/(dashboard)/nav&#45;item.tsx -->
<g id="edge5" class="edge">
<title>app/(dashboard)/layout.tsx&#45;&gt;app/(dashboard)/nav&#45;item.tsx</title>
<path fill="none" stroke="#000000" stroke-width="2" stroke-opacity="0.200000" d="M94.51,-1095.15C107.3,-1091.65 122.92,-1087.37 137.14,-1083.47"/>
<polygon fill="#000000" fill-opacity="0.200000" stroke="#000000" stroke-width="2" stroke-opacity="0.200000" points="137.63,-1085.51 142.86,-1081.9 136.52,-1081.46 137.63,-1085.51"/>
</g>
<!-- app/(dashboard)/providers.tsx -->
<g id="node10" class="node">
<title>app/(dashboard)/providers.tsx</title>
<g id="a_node10"><a xlink:href="app/(dashboard)/providers.tsx" xlink:title="providers.tsx">
<path fill="#bbfeff" stroke="black" d="M206.46,-1171.29C206.46,-1171.29 150.54,-1171.29 150.54,-1171.29 147.58,-1171.29 144.62,-1168.33 144.62,-1165.37 144.62,-1165.37 144.62,-1159.45 144.62,-1159.45 144.62,-1156.5 147.58,-1153.54 150.54,-1153.54 150.54,-1153.54 206.46,-1153.54 206.46,-1153.54 209.42,-1153.54 212.38,-1156.5 212.38,-1159.45 212.38,-1159.45 212.38,-1165.37 212.38,-1165.37 212.38,-1168.33 209.42,-1171.29 206.46,-1171.29"/>
<text text-anchor="start" x="152.62" y="-1158.74" font-family="Helvetica,sans-Serif" font-size="9.00">providers.tsx</text>
</a>
</g>
</g>
<!-- app/(dashboard)/layout.tsx&#45;&gt;app/(dashboard)/providers.tsx -->
<g id="edge6" class="edge">
<title>app/(dashboard)/layout.tsx&#45;&gt;app/(dashboard)/providers.tsx</title>
<path fill="none" stroke="#000000" stroke-width="2" stroke-opacity="0.200000" d="M94.48,-1104.49C103.91,-1106.4 114.03,-1109.93 121.5,-1116.41 132.78,-1126.21 123.62,-1137.18 134.5,-1147.41 135.22,-1148.09 135.97,-1148.74 136.75,-1149.35"/>
<polygon fill="#000000" fill-opacity="0.200000" stroke="#000000" stroke-width="2" stroke-opacity="0.200000" points="135.62,-1151.12 141.81,-1152.55 137.86,-1147.57 135.62,-1151.12"/>
</g>
<!-- app/(dashboard)/search.tsx -->
<g id="node11" class="node">
<title>app/(dashboard)/search.tsx</title>
<g id="a_node11"><a xlink:href="app/(dashboard)/search.tsx" xlink:title="search.tsx">
<path fill="#bbfeff" stroke="black" d="M201.21,-1141.29C201.21,-1141.29 155.79,-1141.29 155.79,-1141.29 152.83,-1141.29 149.88,-1138.33 149.88,-1135.37 149.88,-1135.37 149.88,-1129.45 149.88,-1129.45 149.88,-1126.5 152.83,-1123.54 155.79,-1123.54 155.79,-1123.54 201.21,-1123.54 201.21,-1123.54 204.17,-1123.54 207.12,-1126.5 207.12,-1129.45 207.12,-1129.45 207.12,-1135.37 207.12,-1135.37 207.12,-1138.33 204.17,-1141.29 201.21,-1141.29"/>
<text text-anchor="start" x="157.88" y="-1128.74" font-family="Helvetica,sans-Serif" font-size="9.00">search.tsx</text>
</a>
</g>
</g>
<!-- app/(dashboard)/layout.tsx&#45;&gt;app/(dashboard)/search.tsx -->
<g id="edge7" class="edge">
<title>app/(dashboard)/layout.tsx&#45;&gt;app/(dashboard)/search.tsx</title>
<path fill="none" stroke="#000000" stroke-width="2" stroke-opacity="0.200000" d="M94.43,-1109.2C103.07,-1111.46 112.7,-1114 121.5,-1116.41 127.8,-1118.14 134.49,-1120.01 140.97,-1121.85"/>
<polygon fill="#000000" fill-opacity="0.200000" stroke="#000000" stroke-width="2" stroke-opacity="0.200000" points="140.36,-1123.86 146.71,-1123.48 141.51,-1119.82 140.36,-1123.86"/>
</g>
<!-- app/(dashboard)/user.tsx -->
<g id="node12" class="node">
<title>app/(dashboard)/user.tsx</title>
<g id="a_node12"><a xlink:href="app/(dashboard)/user.tsx" xlink:title="user.tsx">
<path fill="#bbfeff" stroke="black" d="M199.58,-1111.29C199.58,-1111.29 157.42,-1111.29 157.42,-1111.29 154.46,-1111.29 151.5,-1108.33 151.5,-1105.37 151.5,-1105.37 151.5,-1099.45 151.5,-1099.45 151.5,-1096.5 154.46,-1093.54 157.42,-1093.54 157.42,-1093.54 199.58,-1093.54 199.58,-1093.54 202.54,-1093.54 205.5,-1096.5 205.5,-1099.45 205.5,-1099.45 205.5,-1105.37 205.5,-1105.37 205.5,-1108.33 202.54,-1111.29 199.58,-1111.29"/>
<text text-anchor="start" x="162.75" y="-1098.74" font-family="Helvetica,sans-Serif" font-size="9.00">user.tsx</text>
</a>
</g>
</g>
<!-- app/(dashboard)/layout.tsx&#45;&gt;app/(dashboard)/user.tsx -->
<g id="edge8" class="edge">
<title>app/(dashboard)/layout.tsx&#45;&gt;app/(dashboard)/user.tsx</title>
<path fill="none" stroke="#000000" stroke-width="2" stroke-opacity="0.200000" d="M94.51,-1102.41C108.9,-1102.41 126.88,-1102.41 142.41,-1102.41"/>
<polygon fill="#000000" fill-opacity="0.200000" stroke="#000000" stroke-width="2" stroke-opacity="0.200000" points="142.21,-1104.51 148.21,-1102.41 142.21,-1100.31 142.21,-1104.51"/>
</g>
<!-- components/icons.tsx -->
<g id="node13" class="node">
<title>components/icons.tsx</title>
<g id="a_node13"><a xlink:href="components/icons.tsx" xlink:title="icons.tsx">
<path fill="#bbfeff" stroke="black" d="M389.33,-301.29C389.33,-301.29 347.17,-301.29 347.17,-301.29 344.21,-301.29 341.25,-298.33 341.25,-295.37 341.25,-295.37 341.25,-289.45 341.25,-289.45 341.25,-286.5 344.21,-283.54 347.17,-283.54 347.17,-283.54 389.33,-283.54 389.33,-283.54 392.29,-283.54 395.25,-286.5 395.25,-289.45 395.25,-289.45 395.25,-295.37 395.25,-295.37 395.25,-298.33 392.29,-301.29 389.33,-301.29"/>
<text text-anchor="start" x="350.62" y="-288.74" font-family="Helvetica,sans-Serif" font-size="9.00">icons.tsx</text>
</a>
</g>
</g>
<!-- app/(dashboard)/layout.tsx&#45;&gt;components/icons.tsx -->
<g id="edge9" class="edge">
<title>app/(dashboard)/layout.tsx&#45;&gt;components/icons.tsx</title>
<path fill="none" stroke="#000000" stroke-width="2" stroke-opacity="0.200000" d="M94.56,-1101.41C104.58,-1099.59 115.1,-1095.64 121.5,-1087.41 139.58,-1064.16 125.55,-585.47 134.5,-557.41 175.4,-429.23 192.5,-382.08 303.75,-306.41 312.04,-300.77 322.22,-297.36 331.98,-295.31"/>
<polygon fill="#000000" fill-opacity="0.200000" stroke="#000000" stroke-width="2" stroke-opacity="0.200000" points="332.23,-297.4 337.78,-294.3 331.51,-293.26 332.23,-297.4"/>
</g>
<!-- components/ui/breadcrumb.tsx -->
<g id="node14" class="node">
<title>components/ui/breadcrumb.tsx</title>
<g id="a_node14"><a xlink:href="components/ui/breadcrumb.tsx" xlink:title="breadcrumb.tsx">
<path fill="#bbfeff" stroke="black" d="M401.83,-395.29C401.83,-395.29 334.67,-395.29 334.67,-395.29 331.71,-395.29 328.75,-392.33 328.75,-389.37 328.75,-389.37 328.75,-383.45 328.75,-383.45 328.75,-380.5 331.71,-377.54 334.67,-377.54 334.67,-377.54 401.83,-377.54 401.83,-377.54 404.79,-377.54 407.75,-380.5 407.75,-383.45 407.75,-383.45 407.75,-389.37 407.75,-389.37 407.75,-392.33 404.79,-395.29 401.83,-395.29"/>
<text text-anchor="start" x="336.75" y="-382.74" font-family="Helvetica,sans-Serif" font-size="9.00">breadcrumb.tsx</text>
</a>
</g>
</g>
<!-- app/(dashboard)/layout.tsx&#45;&gt;components/ui/breadcrumb.tsx -->
<g id="edge10" class="edge">
<title>app/(dashboard)/layout.tsx&#45;&gt;components/ui/breadcrumb.tsx</title>
<path fill="none" stroke="#000000" stroke-width="2" stroke-opacity="0.200000" d="M94.56,-1101.41C104.58,-1099.59 115.1,-1095.64 121.5,-1087.41 157.6,-1041 100.1,-606.09 134.5,-558.41 179.06,-496.65 249.47,-560.9 295.75,-500.41 309.16,-482.88 289.37,-418.15 303.75,-401.41 308.16,-396.28 313.97,-392.72 320.29,-390.29"/>
<polygon fill="#000000" fill-opacity="0.200000" stroke="#000000" stroke-width="2" stroke-opacity="0.200000" points="320.49,-392.43 325.61,-388.66 319.26,-388.41 320.49,-392.43"/>
</g>
<!-- components/ui/button.tsx -->
<g id="node15" class="node">
<title>components/ui/button.tsx</title>
<g id="a_node15"><a xlink:href="components/ui/button.tsx" xlink:title="button.tsx">
<path fill="#bbfeff" stroke="black" d="M389.83,-455.29C389.83,-455.29 346.67,-455.29 346.67,-455.29 343.71,-455.29 340.75,-452.33 340.75,-449.37 340.75,-449.37 340.75,-443.45 340.75,-443.45 340.75,-440.5 343.71,-437.54 346.67,-437.54 346.67,-437.54 389.83,-437.54 389.83,-437.54 392.79,-437.54 395.75,-440.5 395.75,-443.45 395.75,-443.45 395.75,-449.37 395.75,-449.37 395.75,-452.33 392.79,-455.29 389.83,-455.29"/>
<text text-anchor="start" x="348.75" y="-442.74" font-family="Helvetica,sans-Serif" font-size="9.00">button.tsx</text>
</a>
</g>
</g>
<!-- app/(dashboard)/layout.tsx&#45;&gt;components/ui/button.tsx -->
<g id="edge11" class="edge">
<title>app/(dashboard)/layout.tsx&#45;&gt;components/ui/button.tsx</title>
<path fill="none" stroke="#000000" stroke-width="2" stroke-opacity="0.200000" d="M94.5,-1101.37C104.52,-1099.54 115.05,-1095.59 121.5,-1087.41 145.38,-1057.11 122.56,-777.1 134.5,-740.41 174.26,-618.21 246.07,-618.93 295.75,-500.41 302.59,-484.09 291.43,-474.11 303.75,-461.41 311.07,-453.87 321.43,-449.82 331.66,-447.73"/>
<polygon fill="#000000" fill-opacity="0.200000" stroke="#000000" stroke-width="2" stroke-opacity="0.200000" points="331.94,-449.81 337.55,-446.82 331.3,-445.66 331.94,-449.81"/>
</g>
<!-- components/ui/sheet.tsx -->
<g id="node16" class="node">
<title>components/ui/sheet.tsx</title>
<g id="a_node16"><a xlink:href="components/ui/sheet.tsx" xlink:title="sheet.tsx">
<path fill="#bbfeff" stroke="black" d="M389.33,-365.29C389.33,-365.29 347.17,-365.29 347.17,-365.29 344.21,-365.29 341.25,-362.33 341.25,-359.37 341.25,-359.37 341.25,-353.45 341.25,-353.45 341.25,-350.5 344.21,-347.54 347.17,-347.54 347.17,-347.54 389.33,-347.54 389.33,-347.54 392.29,-347.54 395.25,-350.5 395.25,-353.45 395.25,-353.45 395.25,-359.37 395.25,-359.37 395.25,-362.33 392.29,-365.29 389.33,-365.29"/>
<text text-anchor="start" x="350.25" y="-352.74" font-family="Helvetica,sans-Serif" font-size="9.00">sheet.tsx</text>
</a>
</g>
</g>
<!-- app/(dashboard)/layout.tsx&#45;&gt;components/ui/sheet.tsx -->
<g id="edge12" class="edge">
<title>app/(dashboard)/layout.tsx&#45;&gt;components/ui/sheet.tsx</title>
<path fill="none" stroke="#000000" stroke-width="2" stroke-opacity="0.200000" d="M94.55,-1101.41C104.57,-1099.58 115.09,-1095.63 121.5,-1087.41 137.97,-1066.29 125.91,-630.78 134.5,-605.41 175.68,-483.84 196.97,-442.64 303.75,-371.41 312.12,-365.83 322.32,-362.31 332.08,-360.1"/>
<polygon fill="#000000" fill-opacity="0.200000" stroke="#000000" stroke-width="2" stroke-opacity="0.200000" points="332.39,-362.19 337.88,-358.99 331.59,-358.06 332.39,-362.19"/>
</g>
<!-- components/ui/tooltip.tsx -->
<g id="node17" class="node">
<title>components/ui/tooltip.tsx</title>
<g id="a_node17"><a xlink:href="components/ui/tooltip.tsx" xlink:title="tooltip.tsx">
<path fill="#bbfeff" stroke="black" d="M389.46,-485.29C389.46,-485.29 347.04,-485.29 347.04,-485.29 344.08,-485.29 341.12,-482.33 341.12,-479.37 341.12,-479.37 341.12,-473.45 341.12,-473.45 341.12,-470.5 344.08,-467.54 347.04,-467.54 347.04,-467.54 389.46,-467.54 389.46,-467.54 392.42,-467.54 395.38,-470.5 395.38,-473.45 395.38,-473.45 395.38,-479.37 395.38,-479.37 395.38,-482.33 392.42,-485.29 389.46,-485.29"/>
<text text-anchor="start" x="349.12" y="-472.74" font-family="Helvetica,sans-Serif" font-size="9.00">tooltip.tsx</text>
</a>
</g>
</g>
<!-- app/(dashboard)/layout.tsx&#45;&gt;components/ui/tooltip.tsx -->
<g id="edge13" class="edge">
<title>app/(dashboard)/layout.tsx&#45;&gt;components/ui/tooltip.tsx</title>
<path fill="none" stroke="#000000" stroke-width="2" stroke-opacity="0.200000" d="M94.5,-1101.37C104.52,-1099.54 115.05,-1095.59 121.5,-1087.41 145.38,-1057.11 122.47,-777.07 134.5,-740.41 176.24,-613.28 193.53,-567.29 303.75,-491.41 312.04,-485.71 322.22,-482.16 331.98,-479.95"/>
<polygon fill="#000000" fill-opacity="0.200000" stroke="#000000" stroke-width="2" stroke-opacity="0.200000" points="332.28,-482.03 337.79,-478.84 331.5,-477.9 332.28,-482.03"/>
</g>
<!-- app/(dashboard)/nav&#45;item.tsx&#45;&gt;node_modules/.pnpm -->
<g id="edge16" class="edge">
<title>app/(dashboard)/nav&#45;item.tsx&#45;&gt;node_modules/.pnpm</title>
<path fill="none" stroke="#000000" stroke-opacity="0.200000" d="M211.12,-1081.51C261.14,-1094.05 360.24,-1111.31 432.75,-1075.41 492.86,-1045.66 499.62,-1017.8 524.25,-955.41 556.88,-872.75 567.59,-587.12 569.79,-515.7"/>
<polygon fill="#000000" fill-opacity="0.200000" stroke="#000000" stroke-opacity="0.200000" points="571.88,-515.99 569.96,-509.93 567.68,-515.87 571.88,-515.99"/>
</g>
<!-- app/(dashboard)/nav&#45;item.tsx&#45;&gt;components/ui/tooltip.tsx -->
<g id="edge15" class="edge">
<title>app/(dashboard)/nav&#45;item.tsx&#45;&gt;components/ui/tooltip.tsx</title>
<path fill="none" stroke="#000000" stroke-width="2" stroke-opacity="0.200000" d="M211.13,-1066.41C215.56,-1064.26 219.58,-1061.35 222.5,-1057.41 244.08,-1028.28 225.17,-766.16 235.5,-731.41 250.39,-681.31 280.42,-680.38 295.75,-630.41 300.29,-615.62 293.81,-503.26 303.75,-491.41 310.75,-483.07 321.44,-478.88 332.06,-476.9"/>
<polygon fill="#000000" fill-opacity="0.200000" stroke="#000000" stroke-width="2" stroke-opacity="0.200000" points="332.23,-479 337.89,-476.11 331.67,-474.83 332.23,-479"/>
</g>
<!-- app/(dashboard)/providers.tsx&#45;&gt;components/ui/tooltip.tsx -->
<g id="edge35" class="edge">
<title>app/(dashboard)/providers.tsx&#45;&gt;components/ui/tooltip.tsx</title>
<path fill="none" stroke="#000000" stroke-width="2" stroke-opacity="0.200000" d="M212.61,-1155.38C216.39,-1153.35 219.84,-1150.75 222.5,-1147.41 239.19,-1126.41 228.5,-1053.31 235.5,-1027.41 252.64,-963.98 281.42,-956.53 295.75,-892.41 300.61,-870.67 289.75,-508.75 303.75,-491.41 310.59,-482.94 321.24,-478.72 331.88,-476.75"/>
<polygon fill="#000000" fill-opacity="0.200000" stroke="#000000" stroke-width="2" stroke-opacity="0.200000" points="332.06,-478.84 337.73,-475.97 331.5,-474.68 332.06,-478.84"/>
</g>
<!-- app/(dashboard)/search.tsx&#45;&gt;node_modules/.pnpm -->
<g id="edge38" class="edge">
<title>app/(dashboard)/search.tsx&#45;&gt;node_modules/.pnpm</title>
<path fill="none" stroke="#000000" stroke-opacity="0.200000" d="M207.34,-1132.21C256.64,-1130.6 360.87,-1121.52 432.75,-1075.41 489.2,-1039.2 499.62,-1017.8 524.25,-955.41 556.88,-872.75 567.59,-587.12 569.79,-515.7"/>
<polygon fill="#000000" fill-opacity="0.200000" stroke="#000000" stroke-opacity="0.200000" points="571.88,-515.99 569.96,-509.93 567.68,-515.87 571.88,-515.99"/>
</g>
<!-- app/(dashboard)/search.tsx&#45;&gt;components/icons.tsx -->
<g id="edge36" class="edge">
<title>app/(dashboard)/search.tsx&#45;&gt;components/icons.tsx</title>
<path fill="none" stroke="#000000" stroke-width="2" stroke-opacity="0.200000" d="M207.57,-1127.88C213.34,-1125.65 218.78,-1122.33 222.5,-1117.41 237.52,-1097.51 233.34,-918.25 235.5,-893.41 236.21,-885.24 298.25,-312.5 303.75,-306.41 310.96,-298.43 321.61,-294.45 332.13,-292.6"/>
<polygon fill="#000000" fill-opacity="0.200000" stroke="#000000" stroke-width="2" stroke-opacity="0.200000" points="332.16,-294.71 337.86,-291.88 331.64,-290.54 332.16,-294.71"/>
</g>
<!-- components/ui/input.tsx -->
<g id="node25" class="node">
<title>components/ui/input.tsx</title>
<g id="a_node25"><a xlink:href="components/ui/input.tsx" xlink:title="input.tsx">
<path fill="#bbfeff" stroke="black" d="M389.33,-575.29C389.33,-575.29 347.17,-575.29 347.17,-575.29 344.21,-575.29 341.25,-572.33 341.25,-569.37 341.25,-569.37 341.25,-563.45 341.25,-563.45 341.25,-560.5 344.21,-557.54 347.17,-557.54 347.17,-557.54 389.33,-557.54 389.33,-557.54 392.29,-557.54 395.25,-560.5 395.25,-563.45 395.25,-563.45 395.25,-569.37 395.25,-569.37 395.25,-572.33 392.29,-575.29 389.33,-575.29"/>
<text text-anchor="start" x="351.38" y="-562.74" font-family="Helvetica,sans-Serif" font-size="9.00">input.tsx</text>
</a>
</g>
</g>
<!-- app/(dashboard)/search.tsx&#45;&gt;components/ui/input.tsx -->
<g id="edge37" class="edge">
<title>app/(dashboard)/search.tsx&#45;&gt;components/ui/input.tsx</title>
<path fill="none" stroke="#000000" stroke-width="2" stroke-opacity="0.200000" d="M207.27,-1127.64C213.05,-1125.42 218.58,-1122.17 222.5,-1117.41 248.2,-1086.22 224.27,-1066.24 235.5,-1027.41 253.76,-964.3 281.24,-956.49 295.75,-892.41 299.57,-875.56 292.85,-594.83 303.75,-581.41 310.61,-572.96 321.27,-568.74 331.91,-566.77"/>
<polygon fill="#000000" fill-opacity="0.200000" stroke="#000000" stroke-width="2" stroke-opacity="0.200000" points="332.08,-568.86 337.75,-565.99 331.53,-564.7 332.08,-568.86"/>
</g>
<!-- app/(dashboard)/user.tsx&#45;&gt;node_modules/.pnpm -->
<g id="edge42" class="edge">
<title>app/(dashboard)/user.tsx&#45;&gt;node_modules/.pnpm</title>
<path fill="none" stroke="#000000" stroke-opacity="0.200000" d="M205.87,-1107.1C275.55,-1117.78 463.4,-1135 524.25,-1023.41 573.6,-932.91 571.68,-594.55 570.54,-515.84"/>
<polygon fill="#000000" fill-opacity="0.200000" stroke="#000000" stroke-opacity="0.200000" points="572.65,-516.15 570.45,-510.19 568.45,-516.22 572.65,-516.15"/>
</g>
<!-- app/(dashboard)/user.tsx&#45;&gt;components/ui/button.tsx -->
<g id="edge39" class="edge">
<title>app/(dashboard)/user.tsx&#45;&gt;components/ui/button.tsx</title>
<path fill="none" stroke="#000000" stroke-width="2" stroke-opacity="0.200000" d="M205.86,-1098.59C212.28,-1096.37 218.46,-1092.88 222.5,-1087.41 245.75,-1055.93 224.88,-773.08 235.5,-735.41 250.31,-682.88 280.65,-680.86 295.75,-628.41 300.89,-610.56 291.88,-475.7 303.75,-461.41 310.65,-453.11 321.21,-448.91 331.76,-446.91"/>
<polygon fill="#000000" fill-opacity="0.200000" stroke="#000000" stroke-width="2" stroke-opacity="0.200000" points="331.87,-449.01 337.53,-446.11 331.3,-444.85 331.87,-449.01"/>
</g>
<!-- components/ui/dropdown&#45;menu.tsx -->
<g id="node23" class="node">
<title>components/ui/dropdown&#45;menu.tsx</title>
<g id="a_node23"><a xlink:href="components/ui/dropdown-menu.tsx" xlink:title="dropdown&#45;menu.tsx">
<path fill="#bbfeff" stroke="black" d="M410.83,-545.29C410.83,-545.29 325.67,-545.29 325.67,-545.29 322.71,-545.29 319.75,-542.33 319.75,-539.37 319.75,-539.37 319.75,-533.45 319.75,-533.45 319.75,-530.5 322.71,-527.54 325.67,-527.54 325.67,-527.54 410.83,-527.54 410.83,-527.54 413.79,-527.54 416.75,-530.5 416.75,-533.45 416.75,-533.45 416.75,-539.37 416.75,-539.37 416.75,-542.33 413.79,-545.29 410.83,-545.29"/>
<text text-anchor="start" x="327.75" y="-532.74" font-family="Helvetica,sans-Serif" font-size="9.00">dropdown&#45;menu.tsx</text>
</a>
</g>
</g>
<!-- app/(dashboard)/user.tsx&#45;&gt;components/ui/dropdown&#45;menu.tsx -->
<g id="edge40" class="edge">
<title>app/(dashboard)/user.tsx&#45;&gt;components/ui/dropdown&#45;menu.tsx</title>
<path fill="none" stroke="#000000" stroke-width="2" stroke-opacity="0.200000" d="M205.85,-1098.58C212.27,-1096.36 218.45,-1092.87 222.5,-1087.41 243.75,-1058.73 216.49,-796.63 235.5,-766.41 251.64,-740.75 279.56,-760.05 295.75,-734.41 306.61,-717.2 290.77,-567.09 303.75,-551.41 305.94,-548.77 308.49,-546.54 311.31,-544.67"/>
<polygon fill="#000000" fill-opacity="0.200000" stroke="#000000" stroke-width="2" stroke-opacity="0.200000" points="312.24,-546.55 316.57,-541.9 310.29,-542.83 312.24,-546.55"/>
</g>
<!-- lib/auth.ts -->
<g id="node26" class="node">
<title>lib/auth.ts</title>
<g id="a_node26"><a xlink:href="lib/auth.ts" xlink:title="auth.ts">
<path fill="#ddfeff" stroke="black" d="M503.58,-605.29C503.58,-605.29 461.42,-605.29 461.42,-605.29 458.46,-605.29 455.5,-602.33 455.5,-599.37 455.5,-599.37 455.5,-593.45 455.5,-593.45 455.5,-590.5 458.46,-587.54 461.42,-587.54 461.42,-587.54 503.58,-587.54 503.58,-587.54 506.54,-587.54 509.5,-590.5 509.5,-593.45 509.5,-593.45 509.5,-599.37 509.5,-599.37 509.5,-602.33 506.54,-605.29 503.58,-605.29"/>
<text text-anchor="start" x="469" y="-592.74" font-family="Helvetica,sans-Serif" font-size="9.00">auth.ts</text>
</a>
</g>
</g>
<!-- app/(dashboard)/user.tsx&#45;&gt;lib/auth.ts -->
<g id="edge41" class="edge">
<title>app/(dashboard)/user.tsx&#45;&gt;lib/auth.ts</title>
<path fill="none" stroke="#000000" stroke-width="2" stroke-opacity="0.200000" d="M205.69,-1097.93C211.96,-1095.71 218.1,-1092.39 222.5,-1087.41 240.58,-1066.98 229.61,-1054.05 235.5,-1027.41 261.77,-908.63 272.55,-879.83 295.75,-760.41 299.96,-738.75 291.34,-729.66 303.75,-711.41 341.3,-656.2 390.57,-686.17 432.75,-634.41 439.59,-626.02 433.17,-619.13 440.75,-611.41 442.76,-609.37 445.07,-607.6 447.54,-606.07"/>
<polygon fill="#000000" fill-opacity="0.200000" stroke="#000000" stroke-width="2" stroke-opacity="0.200000" points="448.21,-608.09 452.64,-603.52 446.33,-604.33 448.21,-608.09"/>
</g>
<!-- components/ui/breadcrumb.tsx&#45;&gt;node_modules/.pnpm -->
<g id="edge52" class="edge">
<title>components/ui/breadcrumb.tsx&#45;&gt;node_modules/.pnpm</title>
<path fill="none" stroke="#000000" stroke-opacity="0.200000" d="M408.07,-388.06C441.71,-391.26 490.2,-400.29 524.25,-425.41 544.27,-440.18 557.56,-466.53 564.5,-483.47"/>
<polygon fill="#000000" fill-opacity="0.200000" stroke="#000000" stroke-opacity="0.200000" points="562.39,-483.86 566.53,-488.69 566.31,-482.33 562.39,-483.86"/>
</g>
<!-- components/ui/breadcrumb.tsx&#45;&gt;lib/utils.ts -->
<g id="edge51" class="edge">
<title>components/ui/breadcrumb.tsx&#45;&gt;lib/utils.ts</title>
<path fill="none" stroke="#000000" stroke-width="2" stroke-opacity="0.200000" d="M408.21,-387.6C417.58,-389.82 426.63,-393.98 432.75,-401.41 447.59,-419.44 427.03,-592.52 440.75,-611.41 442.63,-614 445.01,-616.15 447.67,-617.92"/>
<polygon fill="#000000" fill-opacity="0.200000" stroke="#000000" stroke-width="2" stroke-opacity="0.200000" points="446.24,-619.55 452.53,-620.43 448.16,-615.81 446.24,-619.55"/>
</g>
<!-- components/ui/button.tsx&#45;&gt;node_modules/.pnpm -->
<g id="edge54" class="edge">
<title>components/ui/button.tsx&#45;&gt;node_modules/.pnpm</title>
<path fill="none" stroke="#000000" stroke-opacity="0.200000" d="M396.12,-451.58C427.25,-457.82 479.92,-469.13 524.25,-482.41 529.41,-483.96 534.83,-485.78 540.06,-487.64"/>
<polygon fill="#000000" fill-opacity="0.200000" stroke="#000000" stroke-opacity="0.200000" points="539.26,-489.59 545.62,-489.67 540.7,-485.64 539.26,-489.59"/>
</g>
<!-- components/ui/button.tsx&#45;&gt;lib/utils.ts -->
<g id="edge53" class="edge">
<title>components/ui/button.tsx&#45;&gt;lib/utils.ts</title>
<path fill="none" stroke="#000000" stroke-width="2" stroke-opacity="0.200000" d="M395.95,-445.72C409.05,-446.9 423.89,-450.81 432.75,-461.41 454.15,-487.03 420.93,-584.55 440.75,-611.41 442.65,-613.99 445.05,-616.13 447.72,-617.89"/>
<polygon fill="#000000" fill-opacity="0.200000" stroke="#000000" stroke-width="2" stroke-opacity="0.200000" points="446.29,-619.52 452.59,-620.39 448.2,-615.78 446.29,-619.52"/>
</g>
<!-- components/ui/sheet.tsx&#45;&gt;node_modules/.pnpm -->
<g id="edge62" class="edge">
<title>components/ui/sheet.tsx&#45;&gt;node_modules/.pnpm</title>
<path fill="none" stroke="#000000" stroke-opacity="0.200000" d="M395.72,-354.99C429.37,-354.62 487.5,-358.94 524.25,-389.41 553.03,-413.27 564.09,-458.21 568.12,-482.61"/>
<polygon fill="#000000" fill-opacity="0.200000" stroke="#000000" stroke-opacity="0.200000" points="566.04,-482.92 569,-488.54 570.19,-482.3 566.04,-482.92"/>
</g>
<!-- components/ui/sheet.tsx&#45;&gt;lib/utils.ts -->
<g id="edge61" class="edge">
<title>components/ui/sheet.tsx&#45;&gt;lib/utils.ts</title>
<path fill="none" stroke="#000000" stroke-width="2" stroke-opacity="0.200000" d="M395.71,-355.62C408.92,-356.75 423.92,-360.63 432.75,-371.41 449.65,-392.06 425.12,-589.79 440.75,-611.41 442.63,-614.01 445,-616.16 447.66,-617.93"/>
<polygon fill="#000000" fill-opacity="0.200000" stroke="#000000" stroke-width="2" stroke-opacity="0.200000" points="446.22,-619.55 452.52,-620.44 448.15,-615.82 446.22,-619.55"/>
</g>
<!-- components/ui/tooltip.tsx&#45;&gt;node_modules/.pnpm -->
<g id="edge68" class="edge">
<title>components/ui/tooltip.tsx&#45;&gt;node_modules/.pnpm</title>
<path fill="none" stroke="#000000" stroke-opacity="0.200000" d="M395.53,-479.42C431.79,-483.57 497.19,-491.05 536.87,-495.59"/>
<polygon fill="#000000" fill-opacity="0.200000" stroke="#000000" stroke-opacity="0.200000" points="536.26,-497.64 542.46,-496.23 536.74,-493.46 536.26,-497.64"/>
</g>
<!-- components/ui/tooltip.tsx&#45;&gt;lib/utils.ts -->
<g id="edge67" class="edge">
<title>components/ui/tooltip.tsx&#45;&gt;lib/utils.ts</title>
<path fill="none" stroke="#000000" stroke-width="2" stroke-opacity="0.200000" d="M395.57,-475.74C408.73,-476.9 423.75,-480.78 432.75,-491.41 450.02,-511.81 424.74,-590.01 440.75,-611.41 442.67,-613.98 445.07,-616.1 447.75,-617.87"/>
<polygon fill="#000000" fill-opacity="0.200000" stroke="#000000" stroke-width="2" stroke-opacity="0.200000" points="446.33,-619.5 452.63,-620.36 448.24,-615.76 446.33,-619.5"/>
</g>
<!-- app/(dashboard)/page.tsx -->
<g id="node18" class="node">
<title>app/(dashboard)/page.tsx</title>
<g id="a_node18"><a xlink:href="app/(dashboard)/page.tsx" xlink:title="page.tsx">
<path fill="#bbfeff" stroke="black" d="M88.08,-1081.29C88.08,-1081.29 45.92,-1081.29 45.92,-1081.29 42.96,-1081.29 40,-1078.33 40,-1075.37 40,-1075.37 40,-1069.45 40,-1069.45 40,-1066.5 42.96,-1063.54 45.92,-1063.54 45.92,-1063.54 88.08,-1063.54 88.08,-1063.54 91.04,-1063.54 94,-1066.5 94,-1069.45 94,-1069.45 94,-1075.37 94,-1075.37 94,-1078.33 91.04,-1081.29 88.08,-1081.29"/>
<text text-anchor="start" x="49.75" y="-1068.74" font-family="Helvetica,sans-Serif" font-size="9.00">page.tsx</text>
</a>
</g>
</g>
<!-- app/(dashboard)/page.tsx&#45;&gt;lib/db.ts -->
<g id="edge20" class="edge">
<title>app/(dashboard)/page.tsx&#45;&gt;lib/db.ts</title>
<path fill="none" stroke="#000000" stroke-width="2" stroke-opacity="0.200000" d="M94.3,-1071.48C104.41,-1069.68 115.07,-1065.73 121.5,-1057.41 144.78,-1027.3 115.72,-405.52 134.5,-372.41 177.61,-296.42 219.06,-293.89 303.75,-272.41 359.32,-258.32 391.77,-232.31 432.75,-272.41 447.41,-286.75 428.84,-624.72 440.75,-641.41 442.61,-644.02 444.98,-646.18 447.63,-647.96"/>
<polygon fill="#000000" fill-opacity="0.200000" stroke="#000000" stroke-width="2" stroke-opacity="0.200000" points="446.19,-649.57 452.48,-650.46 448.11,-645.84 446.19,-649.57"/>
</g>
<!-- app/(dashboard)/page.tsx&#45;&gt;node_modules/.pnpm -->
<g id="edge21" class="edge">
<title>app/(dashboard)/page.tsx&#45;&gt;node_modules/.pnpm</title>
<path fill="none" stroke="#000000" stroke-opacity="0.200000" d="M94.31,-1071.49C104.42,-1069.69 115.08,-1065.74 121.5,-1057.41 147.5,-1023.72 108.09,-324.79 134.5,-291.41 176.06,-238.9 365.79,-247.68 432.75,-248.41 473.42,-248.86 493.27,-224.05 524.25,-250.41 559.84,-280.7 568.04,-432.45 569.8,-483"/>
<polygon fill="#000000" fill-opacity="0.200000" stroke="#000000" stroke-opacity="0.200000" points="567.69,-482.77 569.98,-488.7 571.89,-482.63 567.69,-482.77"/>
</g>
<!-- app/(dashboard)/page.tsx&#45;&gt;components/ui/button.tsx -->
<g id="edge18" class="edge">
<title>app/(dashboard)/page.tsx&#45;&gt;components/ui/button.tsx</title>
<path fill="none" stroke="#000000" stroke-width="2" stroke-opacity="0.200000" d="M94.27,-1071.46C104.38,-1069.66 115.04,-1065.71 121.5,-1057.41 155.65,-1013.57 106.91,-605.65 134.5,-557.41 175.35,-486 277.49,-459.91 331.87,-450.88"/>
<polygon fill="#000000" fill-opacity="0.200000" stroke="#000000" stroke-width="2" stroke-opacity="0.200000" points="331.9,-453 337.5,-449.99 331.25,-448.85 331.9,-453"/>
</g>
<!-- app/(dashboard)/products&#45;table.tsx -->
<g id="node19" class="node">
<title>app/(dashboard)/products&#45;table.tsx</title>
<g id="a_node19"><a xlink:href="app/(dashboard)/products-table.tsx" xlink:title="products&#45;table.tsx">
<path fill="#bbfeff" stroke="black" d="M216.58,-1051.29C216.58,-1051.29 140.42,-1051.29 140.42,-1051.29 137.46,-1051.29 134.5,-1048.33 134.5,-1045.37 134.5,-1045.37 134.5,-1039.45 134.5,-1039.45 134.5,-1036.5 137.46,-1033.54 140.42,-1033.54 140.42,-1033.54 216.58,-1033.54 216.58,-1033.54 219.54,-1033.54 222.5,-1036.5 222.5,-1039.45 222.5,-1039.45 222.5,-1045.37 222.5,-1045.37 222.5,-1048.33 219.54,-1051.29 216.58,-1051.29"/>
<text text-anchor="start" x="142.5" y="-1038.74" font-family="Helvetica,sans-Serif" font-size="9.00">products&#45;table.tsx</text>
</a>
</g>
</g>
<!-- app/(dashboard)/page.tsx&#45;&gt;app/(dashboard)/products&#45;table.tsx -->
<g id="edge17" class="edge">
<title>app/(dashboard)/page.tsx&#45;&gt;app/(dashboard)/products&#45;table.tsx</title>
<path fill="none" stroke="#000000" stroke-width="2" stroke-opacity="0.200000" d="M94.23,-1065.23C106.49,-1061.87 121.4,-1057.78 135.19,-1054"/>
<polygon fill="#000000" fill-opacity="0.200000" stroke="#000000" stroke-width="2" stroke-opacity="0.200000" points="135.45,-1056.11 140.69,-1052.5 134.34,-1052.06 135.45,-1056.11"/>
</g>
<!-- components/ui/tabs.tsx -->
<g id="node20" class="node">
<title>components/ui/tabs.tsx</title>
<g id="a_node20"><a xlink:href="components/ui/tabs.tsx" xlink:title="tabs.tsx">
<path fill="#bbfeff" stroke="black" d="M389.33,-335.29C389.33,-335.29 347.17,-335.29 347.17,-335.29 344.21,-335.29 341.25,-332.33 341.25,-329.37 341.25,-329.37 341.25,-323.45 341.25,-323.45 341.25,-320.5 344.21,-317.54 347.17,-317.54 347.17,-317.54 389.33,-317.54 389.33,-317.54 392.29,-317.54 395.25,-320.5 395.25,-323.45 395.25,-323.45 395.25,-329.37 395.25,-329.37 395.25,-332.33 392.29,-335.29 389.33,-335.29"/>
<text text-anchor="start" x="352.88" y="-322.74" font-family="Helvetica,sans-Serif" font-size="9.00">tabs.tsx</text>
</a>
</g>
</g>
<!-- app/(dashboard)/page.tsx&#45;&gt;components/ui/tabs.tsx -->
<g id="edge19" class="edge">
<title>app/(dashboard)/page.tsx&#45;&gt;components/ui/tabs.tsx</title>
<path fill="none" stroke="#000000" stroke-width="2" stroke-opacity="0.200000" d="M94.29,-1071.47C104.4,-1069.67 115.05,-1065.72 121.5,-1057.41 141.09,-1032.17 120.62,-511.19 134.5,-482.41 177.03,-394.23 216.16,-385.16 303.75,-341.41 312.59,-336.99 322.79,-333.84 332.39,-331.61"/>
<polygon fill="#000000" fill-opacity="0.200000" stroke="#000000" stroke-width="2" stroke-opacity="0.200000" points="332.57,-333.72 338.01,-330.43 331.71,-329.61 332.57,-333.72"/>
</g>
<!-- app/(dashboard)/products&#45;table.tsx&#45;&gt;lib/db.ts -->
<g id="edge33" class="edge">
<title>app/(dashboard)/products&#45;table.tsx&#45;&gt;lib/db.ts</title>
<path fill="none" stroke="#000000" stroke-width="2" stroke-opacity="0.200000" d="M218.25,-1033.06C219.78,-1031.98 221.21,-1030.76 222.5,-1029.41 323.38,-924.05 203.21,-817.1 303.75,-711.41 341.14,-672.11 405.95,-660.7 446.13,-657.51"/>
<polygon fill="#000000" fill-opacity="0.200000" stroke="#000000" stroke-width="2" stroke-opacity="0.200000" points="446.18,-659.61 452.03,-657.11 445.9,-655.42 446.18,-659.61"/>
</g>
<!-- app/(dashboard)/products&#45;table.tsx&#45;&gt;node_modules/.pnpm -->
<g id="edge34" class="edge">
<title>app/(dashboard)/products&#45;table.tsx&#45;&gt;node_modules/.pnpm</title>
<path fill="none" stroke="#000000" stroke-opacity="0.200000" d="M214.15,-1051.71C221.21,-1053.6 228.59,-1055.58 235.5,-1057.41 320.58,-1080.02 353.86,-1114.47 432.75,-1075.41 492.86,-1045.66 499.62,-1017.8 524.25,-955.41 556.88,-872.75 567.59,-587.12 569.79,-515.7"/>
<polygon fill="#000000" fill-opacity="0.200000" stroke="#000000" stroke-opacity="0.200000" points="571.88,-515.99 569.96,-509.93 567.68,-515.87 571.88,-515.99"/>
</g>
<!-- app/(dashboard)/products&#45;table.tsx&#45;&gt;components/ui/card.tsx -->
<g id="edge31" class="edge">
<title>app/(dashboard)/products&#45;table.tsx&#45;&gt;components/ui/card.tsx</title>
<path fill="none" stroke="#000000" stroke-width="2" stroke-opacity="0.200000" d="M218.99,-1033.1C220.27,-1032 221.46,-1030.77 222.5,-1029.41 251.17,-992 209.27,-644.57 235.5,-605.41 251.83,-581.03 279.13,-602.6 295.75,-578.41 314.27,-551.45 282.76,-456.51 303.75,-431.41 310.73,-423.06 321.42,-418.87 332.05,-416.89"/>
<polygon fill="#000000" fill-opacity="0.200000" stroke="#000000" stroke-width="2" stroke-opacity="0.200000" points="332.21,-418.98 337.88,-416.1 331.65,-414.82 332.21,-418.98"/>
</g>
<!-- app/(dashboard)/products&#45;table.tsx&#45;&gt;components/ui/button.tsx -->
<g id="edge30" class="edge">
<title>app/(dashboard)/products&#45;table.tsx&#45;&gt;components/ui/button.tsx</title>
<path fill="none" stroke="#000000" stroke-width="2" stroke-opacity="0.200000" d="M218.98,-1033.09C220.27,-1032 221.45,-1030.77 222.5,-1029.41 249.45,-994.32 210.84,-668.15 235.5,-631.41 251.85,-607.05 279.12,-628.59 295.75,-604.41 313.79,-578.19 283.31,-485.81 303.75,-461.41 310.68,-453.14 321.26,-448.94 331.8,-446.94"/>
<polygon fill="#000000" fill-opacity="0.200000" stroke="#000000" stroke-width="2" stroke-opacity="0.200000" points="331.91,-449.04 337.57,-446.14 331.33,-444.88 331.91,-449.04"/>
</g>
<!-- app/(dashboard)/product.tsx -->
<g id="node21" class="node">
<title>app/(dashboard)/product.tsx</title>
<g id="a_node21"><a xlink:href="app/(dashboard)/product.tsx" xlink:title="product.tsx">
<path fill="#bbfeff" stroke="black" d="M289.83,-1051.29C289.83,-1051.29 241.42,-1051.29 241.42,-1051.29 238.46,-1051.29 235.5,-1048.33 235.5,-1045.37 235.5,-1045.37 235.5,-1039.45 235.5,-1039.45 235.5,-1036.5 238.46,-1033.54 241.42,-1033.54 241.42,-1033.54 289.83,-1033.54 289.83,-1033.54 292.79,-1033.54 295.75,-1036.5 295.75,-1039.45 295.75,-1039.45 295.75,-1045.37 295.75,-1045.37 295.75,-1048.33 292.79,-1051.29 289.83,-1051.29"/>
<text text-anchor="start" x="243.5" y="-1038.74" font-family="Helvetica,sans-Serif" font-size="9.00">product.tsx</text>
</a>
</g>
</g>
<!-- app/(dashboard)/products&#45;table.tsx&#45;&gt;app/(dashboard)/product.tsx -->
<g id="edge29" class="edge">
<title>app/(dashboard)/products&#45;table.tsx&#45;&gt;app/(dashboard)/product.tsx</title>
<path fill="none" stroke="#000000" stroke-width="2" stroke-opacity="0.200000" d="M222.56,-1042.41C223.9,-1042.41 225.24,-1042.41 226.57,-1042.41"/>
<polygon fill="#000000" fill-opacity="0.200000" stroke="#000000" stroke-width="2" stroke-opacity="0.200000" points="226.21,-1044.51 232.21,-1042.41 226.21,-1040.31 226.21,-1044.51"/>
</g>
<!-- components/ui/table.tsx -->
<g id="node24" class="node">
<title>components/ui/table.tsx</title>
<g id="a_node24"><a xlink:href="components/ui/table.tsx" xlink:title="table.tsx">
<path fill="#bbfeff" stroke="black" d="M389.33,-515.29C389.33,-515.29 347.17,-515.29 347.17,-515.29 344.21,-515.29 341.25,-512.33 341.25,-509.37 341.25,-509.37 341.25,-503.45 341.25,-503.45 341.25,-500.5 344.21,-497.54 347.17,-497.54 347.17,-497.54 389.33,-497.54 389.33,-497.54 392.29,-497.54 395.25,-500.5 395.25,-503.45 395.25,-503.45 395.25,-509.37 395.25,-509.37 395.25,-512.33 392.29,-515.29 389.33,-515.29"/>
<text text-anchor="start" x="351.38" y="-502.74" font-family="Helvetica,sans-Serif" font-size="9.00">table.tsx</text>
</a>
</g>
</g>
<!-- app/(dashboard)/products&#45;table.tsx&#45;&gt;components/ui/table.tsx -->
<g id="edge32" class="edge">
<title>app/(dashboard)/products&#45;table.tsx&#45;&gt;components/ui/table.tsx</title>
<path fill="none" stroke="#000000" stroke-width="2" stroke-opacity="0.200000" d="M218.98,-1033.09C220.27,-1031.99 221.45,-1030.77 222.5,-1029.41 247.4,-997.09 213.86,-697 235.5,-662.41 251.58,-636.71 279.19,-655.81 295.75,-630.41 309.02,-610.07 287.99,-539.89 303.75,-521.41 310.81,-513.13 321.52,-508.95 332.14,-506.96"/>
<polygon fill="#000000" fill-opacity="0.200000" stroke="#000000" stroke-width="2" stroke-opacity="0.200000" points="332.3,-509.06 337.96,-506.17 331.73,-504.9 332.3,-509.06"/>
</g>
<!-- components/ui/tabs.tsx&#45;&gt;node_modules/.pnpm -->
<g id="edge66" class="edge">
<title>components/ui/tabs.tsx&#45;&gt;node_modules/.pnpm</title>
<path fill="none" stroke="#000000" stroke-opacity="0.200000" d="M395.48,-323.54C429.41,-321.34 488.41,-322.91 524.25,-354.41 562.3,-387.87 569.16,-452.62 570.2,-482.96"/>
<polygon fill="#000000" fill-opacity="0.200000" stroke="#000000" stroke-opacity="0.200000" points="568.1,-482.76 570.33,-488.72 572.29,-482.67 568.1,-482.76"/>
</g>
<!-- components/ui/tabs.tsx&#45;&gt;lib/utils.ts -->
<g id="edge65" class="edge">
<title>components/ui/tabs.tsx&#45;&gt;lib/utils.ts</title>
<path fill="none" stroke="#000000" stroke-width="2" stroke-opacity="0.200000" d="M395.73,-325.61C408.94,-326.73 423.94,-330.61 432.75,-341.41 451.72,-364.67 423.22,-587.05 440.75,-611.41 442.62,-614.01 444.99,-616.16 447.65,-617.94"/>
<polygon fill="#000000" fill-opacity="0.200000" stroke="#000000" stroke-width="2" stroke-opacity="0.200000" points="446.21,-619.56 452.51,-620.44 448.14,-615.83 446.21,-619.56"/>
</g>
<!-- app/(dashboard)/product.tsx&#45;&gt;app/(dashboard)/actions.ts -->
<g id="edge22" class="edge">
<title>app/(dashboard)/product.tsx&#45;&gt;app/(dashboard)/actions.ts</title>
<path fill="none" stroke="#000000" stroke-width="2" stroke-opacity="0.200000" d="M296,-1042.41C307.28,-1042.41 320.27,-1042.41 332.04,-1042.41"/>
<polygon fill="#000000" fill-opacity="0.200000" stroke="#000000" stroke-width="2" stroke-opacity="0.200000" points="331.73,-1044.51 337.73,-1042.41 331.73,-1040.31 331.73,-1044.51"/>
</g>
<!-- app/(dashboard)/product.tsx&#45;&gt;lib/db.ts -->
<g id="edge27" class="edge">
<title>app/(dashboard)/product.tsx&#45;&gt;lib/db.ts</title>
<path fill="none" stroke="#000000" stroke-width="2" stroke-opacity="0.200000" d="M274.5,-1033.04C280.63,-1025.54 289.18,-1014.61 295.75,-1004.41 373.93,-883.01 449.33,-725.53 473.5,-673.75"/>
<polygon fill="#000000" fill-opacity="0.200000" stroke="#000000" stroke-width="2" stroke-opacity="0.200000" points="475.39,-674.66 476.01,-668.34 471.58,-672.89 475.39,-674.66"/>
</g>
<!-- app/(dashboard)/product.tsx&#45;&gt;node_modules/.pnpm -->
<g id="edge28" class="edge">
<title>app/(dashboard)/product.tsx&#45;&gt;node_modules/.pnpm</title>
<path fill="none" stroke="#000000" stroke-opacity="0.200000" d="M286.4,-1051.76C319.85,-1066.06 388.3,-1088.6 432.75,-1057.41 525.71,-992.18 562.07,-601.69 568.99,-516.02"/>
<polygon fill="#000000" fill-opacity="0.200000" stroke="#000000" stroke-opacity="0.200000" points="571.07,-516.36 569.44,-510.21 566.88,-516.03 571.07,-516.36"/>
</g>
<!-- app/(dashboard)/product.tsx&#45;&gt;components/ui/button.tsx -->
<g id="edge24" class="edge">
<title>app/(dashboard)/product.tsx&#45;&gt;components/ui/button.tsx</title>
<path fill="none" stroke="#000000" stroke-width="2" stroke-opacity="0.200000" d="M268.95,-1033.36C274.8,-1010.15 290.04,-946.49 295.75,-892.41 297.01,-880.5 296.23,-470.73 303.75,-461.41 310.53,-453.01 321.06,-448.78 331.61,-446.79"/>
<polygon fill="#000000" fill-opacity="0.200000" stroke="#000000" stroke-width="2" stroke-opacity="0.200000" points="331.74,-448.89 337.4,-446 331.17,-444.73 331.74,-448.89"/>
</g>
<!-- components/ui/badge.tsx -->
<g id="node22" class="node">
<title>components/ui/badge.tsx</title>
<g id="a_node22"><a xlink:href="components/ui/badge.tsx" xlink:title="badge.tsx">
<path fill="#bbfeff" stroke="black" d="M390.21,-605.29C390.21,-605.29 346.29,-605.29 346.29,-605.29 343.33,-605.29 340.38,-602.33 340.38,-599.37 340.38,-599.37 340.38,-593.45 340.38,-593.45 340.38,-590.5 343.33,-587.54 346.29,-587.54 346.29,-587.54 390.21,-587.54 390.21,-587.54 393.17,-587.54 396.12,-590.5 396.12,-593.45 396.12,-593.45 396.12,-599.37 396.12,-599.37 396.12,-602.33 393.17,-605.29 390.21,-605.29"/>
<text text-anchor="start" x="348.38" y="-592.74" font-family="Helvetica,sans-Serif" font-size="9.00">badge.tsx</text>
</a>
</g>
</g>
<!-- app/(dashboard)/product.tsx&#45;&gt;components/ui/badge.tsx -->
<g id="edge23" class="edge">
<title>app/(dashboard)/product.tsx&#45;&gt;components/ui/badge.tsx</title>
<path fill="none" stroke="#000000" stroke-width="2" stroke-opacity="0.200000" d="M276.46,-1033.14C283.28,-1026.01 291.81,-1015.54 295.75,-1004.41 306.63,-973.72 295.19,-742.83 303.75,-711.41 314.16,-673.2 339.67,-633.9 355,-612.59"/>
<polygon fill="#000000" fill-opacity="0.200000" stroke="#000000" stroke-width="2" stroke-opacity="0.200000" points="356.49,-614.1 358.35,-608.02 353.11,-611.61 356.49,-614.1"/>
</g>
<!-- app/(dashboard)/product.tsx&#45;&gt;components/ui/dropdown&#45;menu.tsx -->
<g id="edge25" class="edge">
<title>app/(dashboard)/product.tsx&#45;&gt;components/ui/dropdown&#45;menu.tsx</title>
<path fill="none" stroke="#000000" stroke-width="2" stroke-opacity="0.200000" d="M276.49,-1033.15C283.32,-1026.03 291.86,-1015.56 295.75,-1004.41 304.04,-980.65 287.96,-571.01 303.75,-551.41 306,-548.61 308.67,-546.28 311.62,-544.34"/>
<polygon fill="#000000" fill-opacity="0.200000" stroke="#000000" stroke-width="2" stroke-opacity="0.200000" points="312.41,-546.3 316.76,-541.67 310.47,-542.57 312.41,-546.3"/>
</g>
<!-- app/(dashboard)/product.tsx&#45;&gt;components/ui/table.tsx -->
<g id="edge26" class="edge">
<title>app/(dashboard)/product.tsx&#45;&gt;components/ui/table.tsx</title>
<path fill="none" stroke="#000000" stroke-width="2" stroke-opacity="0.200000" d="M276.5,-1033.15C283.33,-1026.03 291.87,-1015.56 295.75,-1004.41 304.58,-979.07 286.92,-542.32 303.75,-521.41 310.63,-512.86 321.4,-508.64 332.12,-506.68"/>
<polygon fill="#000000" fill-opacity="0.200000" stroke="#000000" stroke-width="2" stroke-opacity="0.200000" points="332.35,-508.77 338.03,-505.92 331.82,-504.61 332.35,-508.77"/>
</g>
<!-- components/ui/badge.tsx&#45;&gt;node_modules/.pnpm -->
<g id="edge50" class="edge">
<title>components/ui/badge.tsx&#45;&gt;node_modules/.pnpm</title>
<path fill="none" stroke="#000000" stroke-opacity="0.200000" d="M396.43,-592.02C407.91,-589.65 421.25,-586.21 432.75,-581.41 436.62,-579.8 436.96,-578.2 440.75,-576.41 476.15,-559.7 491.3,-569.54 524.25,-548.41 538.21,-539.46 550.84,-525.35 559.33,-514.56"/>
<polygon fill="#000000" fill-opacity="0.200000" stroke="#000000" stroke-opacity="0.200000" points="560.94,-515.91 562.9,-509.86 557.6,-513.37 560.94,-515.91"/>
</g>
<!-- components/ui/badge.tsx&#45;&gt;lib/utils.ts -->
<g id="edge49" class="edge">
<title>components/ui/badge.tsx&#45;&gt;lib/utils.ts</title>
<path fill="none" stroke="#000000" stroke-width="2" stroke-opacity="0.200000" d="M396.42,-603.67C411.53,-607.71 430.5,-612.78 446.69,-617.11"/>
<polygon fill="#000000" fill-opacity="0.200000" stroke="#000000" stroke-width="2" stroke-opacity="0.200000" points="446.09,-619.12 452.43,-618.64 447.17,-615.06 446.09,-619.12"/>
</g>
<!-- components/ui/dropdown&#45;menu.tsx&#45;&gt;node_modules/.pnpm -->
<g id="edge58" class="edge">
<title>components/ui/dropdown&#45;menu.tsx&#45;&gt;node_modules/.pnpm</title>
<path fill="none" stroke="#000000" stroke-opacity="0.200000" d="M417.14,-527.6C454.06,-520.8 504.17,-511.58 536.85,-505.56"/>
<polygon fill="#000000" fill-opacity="0.200000" stroke="#000000" stroke-opacity="0.200000" points="536.95,-507.68 542.47,-504.53 536.18,-503.55 536.95,-507.68"/>
</g>
<!-- components/ui/dropdown&#45;menu.tsx&#45;&gt;lib/utils.ts -->
<g id="edge57" class="edge">
<title>components/ui/dropdown&#45;menu.tsx&#45;&gt;lib/utils.ts</title>
<path fill="none" stroke="#000000" stroke-width="2" stroke-opacity="0.200000" d="M417.17,-540.96C423.06,-543.35 428.49,-546.71 432.75,-551.41 450.8,-571.36 423.93,-590.41 440.75,-611.41 442.59,-613.71 444.81,-615.65 447.26,-617.3"/>
<polygon fill="#000000" fill-opacity="0.200000" stroke="#000000" stroke-width="2" stroke-opacity="0.200000" points="446.15,-619.09 452.44,-620 448.09,-615.36 446.15,-619.09"/>
</g>
<!-- components/ui/table.tsx&#45;&gt;node_modules/.pnpm -->
<g id="edge64" class="edge">
<title>components/ui/table.tsx&#45;&gt;node_modules/.pnpm</title>
<path fill="none" stroke="#000000" stroke-opacity="0.200000" d="M395.73,-504.72C409.2,-503.92 425.84,-503 440.75,-502.41 473.27,-501.13 510.4,-500.34 536.55,-499.89"/>
<polygon fill="#000000" fill-opacity="0.200000" stroke="#000000" stroke-opacity="0.200000" points="536.47,-501.99 542.44,-499.79 536.4,-497.79 536.47,-501.99"/>
</g>
<!-- components/ui/table.tsx&#45;&gt;lib/utils.ts -->
<g id="edge63" class="edge">
<title>components/ui/table.tsx&#45;&gt;lib/utils.ts</title>
<path fill="none" stroke="#000000" stroke-width="2" stroke-opacity="0.200000" d="M395.47,-505.82C408.61,-507.01 423.63,-510.88 432.75,-521.41 445.89,-536.59 428.54,-595.47 440.75,-611.41 442.7,-613.96 445.12,-616.07 447.81,-617.82"/>
<polygon fill="#000000" fill-opacity="0.200000" stroke="#000000" stroke-width="2" stroke-opacity="0.200000" points="446.4,-619.46 452.7,-620.31 448.3,-615.72 446.4,-619.46"/>
</g>
<!-- components/ui/input.tsx&#45;&gt;node_modules/.pnpm -->
<g id="edge60" class="edge">
<title>components/ui/input.tsx&#45;&gt;node_modules/.pnpm</title>
<path fill="none" stroke="#000000" stroke-opacity="0.200000" d="M395.75,-561.71C427.2,-555.6 480.84,-543.54 524.25,-525.41 532.85,-521.82 541.86,-516.99 549.61,-512.46"/>
<polygon fill="#000000" fill-opacity="0.200000" stroke="#000000" stroke-opacity="0.200000" points="550.42,-514.43 554.49,-509.54 548.26,-510.82 550.42,-514.43"/>
</g>
<!-- components/ui/input.tsx&#45;&gt;lib/utils.ts -->
<g id="edge59" class="edge">
<title>components/ui/input.tsx&#45;&gt;lib/utils.ts</title>
<path fill="none" stroke="#000000" stroke-width="2" stroke-opacity="0.200000" d="M395.72,-566.59C408.44,-568.05 423,-571.94 432.75,-581.41 442.65,-591.03 431.45,-601.22 440.75,-611.41 442.68,-613.53 444.94,-615.35 447.38,-616.91"/>
<polygon fill="#000000" fill-opacity="0.200000" stroke="#000000" stroke-width="2" stroke-opacity="0.200000" points="446.13,-618.63 452.42,-619.49 448.04,-614.89 446.13,-618.63"/>
</g>
<!-- lib/auth.ts&#45;&gt;node_modules/.pnpm -->
<g id="edge69" class="edge">
<title>lib/auth.ts&#45;&gt;node_modules/.pnpm</title>
<path fill="none" stroke="#000000" stroke-opacity="0.200000" d="M505.63,-587.15C512.1,-583.77 518.88,-579.5 524.25,-574.41 542.34,-557.29 556.04,-531.56 563.61,-515.13"/>
<polygon fill="#000000" fill-opacity="0.200000" stroke="#000000" stroke-opacity="0.200000" points="565.52,-516.02 566.04,-509.68 561.68,-514.31 565.52,-516.02"/>
</g>
<!-- app/api/auth/[...nextauth]/route.ts -->
<g id="node27" class="node">
<title>app/api/auth/[...nextauth]/route.ts</title>
<g id="a_node27"><a xlink:href="app/api/auth/[...nextauth]/route.ts" xlink:title="route.ts">
<path fill="#ddfeff" stroke="black" d="M88.08,-793.29C88.08,-793.29 45.92,-793.29 45.92,-793.29 42.96,-793.29 40,-790.33 40,-787.37 40,-787.37 40,-781.45 40,-781.45 40,-778.5 42.96,-775.54 45.92,-775.54 45.92,-775.54 88.08,-775.54 88.08,-775.54 91.04,-775.54 94,-778.5 94,-781.45 94,-781.45 94,-787.37 94,-787.37 94,-790.33 91.04,-793.29 88.08,-793.29"/>
<text text-anchor="start" x="52" y="-780.74" font-family="Helvetica,sans-Serif" font-size="9.00">route.ts</text>
</a>
</g>
</g>
<!-- app/api/auth/[...nextauth]/route.ts&#45;&gt;lib/auth.ts -->
<g id="edge43" class="edge">
<title>app/api/auth/[...nextauth]/route.ts&#45;&gt;lib/auth.ts</title>
<path fill="none" stroke="#000000" stroke-width="2" stroke-opacity="0.200000" d="M86.47,-775.15C98.83,-767.84 114.15,-756.39 121.5,-741.41 137.99,-707.85 107.8,-94.6 134.5,-68.41 229.13,24.41 334.81,20.91 432.75,-68.41 435.17,-70.62 471.85,-486.63 479.93,-578.57"/>
<polygon fill="#000000" fill-opacity="0.200000" stroke="#000000" stroke-width="2" stroke-opacity="0.200000" points="477.82,-578.48 480.43,-584.27 482,-578.11 477.82,-578.48"/>
</g>
<!-- app/api/seed/route.ts -->
<g id="node28" class="node">
<title>app/api/seed/route.ts</title>
<g id="a_node28"><a xlink:href="app/api/seed/route.ts" xlink:title="no&#45;orphans">
<path fill="#ccffcc" stroke="orange" d="M88.08,-879.29C88.08,-879.29 45.92,-879.29 45.92,-879.29 42.96,-879.29 40,-876.33 40,-873.37 40,-873.37 40,-867.45 40,-867.45 40,-864.5 42.96,-861.54 45.92,-861.54 45.92,-861.54 88.08,-861.54 88.08,-861.54 91.04,-861.54 94,-864.5 94,-867.45 94,-867.45 94,-873.37 94,-873.37 94,-876.33 91.04,-879.29 88.08,-879.29"/>
<text text-anchor="start" x="52" y="-866.74" font-family="Helvetica,sans-Serif" font-size="9.00" fill="orange">route.ts</text>
</a>
</g>
</g>
<!-- app/globals.css -->
<g id="node29" class="node">
<title>app/globals.css</title>
<g id="a_node29"><a xlink:href="app/globals.css" xlink:title="globals.css">
<path fill="#ffffcc" stroke="black" d="M203.46,-1017.29C203.46,-1017.29 153.54,-1017.29 153.54,-1017.29 150.58,-1017.29 147.62,-1014.33 147.62,-1011.37 147.62,-1011.37 147.62,-1005.45 147.62,-1005.45 147.62,-1002.5 150.58,-999.54 153.54,-999.54 153.54,-999.54 203.46,-999.54 203.46,-999.54 206.42,-999.54 209.38,-1002.5 209.38,-1005.45 209.38,-1005.45 209.38,-1011.37 209.38,-1011.37 209.38,-1014.33 206.42,-1017.29 203.46,-1017.29"/>
<text text-anchor="start" x="155.62" y="-1004.74" font-family="Helvetica,sans-Serif" font-size="9.00">globals.css</text>
</a>
</g>
</g>
<!-- app/layout.tsx -->
<g id="node30" class="node">
<title>app/layout.tsx</title>
<g id="a_node30"><a xlink:href="app/layout.tsx" xlink:title="layout.tsx">
<path fill="#bbfeff" stroke="black" d="M88.21,-1017.29C88.21,-1017.29 45.79,-1017.29 45.79,-1017.29 42.83,-1017.29 39.88,-1014.33 39.88,-1011.37 39.88,-1011.37 39.88,-1005.45 39.88,-1005.45 39.88,-1002.5 42.83,-999.54 45.79,-999.54 45.79,-999.54 88.21,-999.54 88.21,-999.54 91.17,-999.54 94.12,-1002.5 94.12,-1005.45 94.12,-1005.45 94.12,-1011.37 94.12,-1011.37 94.12,-1014.33 91.17,-1017.29 88.21,-1017.29"/>
<text text-anchor="start" x="47.88" y="-1004.74" font-family="Helvetica,sans-Serif" font-size="9.00">layout.tsx</text>
</a>
</g>
</g>
<!-- app/layout.tsx&#45;&gt;node_modules/.pnpm -->
<g id="edge45" class="edge">
<title>app/layout.tsx&#45;&gt;node_modules/.pnpm</title>
<path fill="none" stroke="#000000" stroke-opacity="0.200000" d="M94.55,-1007.96C104.58,-1006.34 115.1,-1002.57 121.5,-994.41 149.69,-958.48 103.97,-206.38 134.5,-172.41 173.45,-129.07 206.36,-156.41 264.62,-156.41 264.62,-156.41 264.62,-156.41 369.25,-156.41 438.5,-156.41 474.38,-124.35 524.25,-172.41 569.29,-215.82 570.97,-422.8 570.48,-482.97"/>
<polygon fill="#000000" fill-opacity="0.200000" stroke="#000000" stroke-opacity="0.200000" points="568.39,-482.62 570.42,-488.65 572.59,-482.67 568.39,-482.62"/>
</g>
<!-- app/layout.tsx&#45;&gt;app/globals.css -->
<g id="edge44" class="edge">
<title>app/layout.tsx&#45;&gt;app/globals.css</title>
<path fill="none" stroke="#000000" stroke-width="2" stroke-opacity="0.200000" d="M94.51,-1008.41C107.72,-1008.41 123.94,-1008.41 138.54,-1008.41"/>
<polygon fill="#000000" fill-opacity="0.200000" stroke="#000000" stroke-width="2" stroke-opacity="0.200000" points="138.34,-1010.51 144.34,-1008.41 138.34,-1006.31 138.34,-1010.51"/>
</g>
<!-- app/login/page.tsx -->
<g id="node31" class="node">
<title>app/login/page.tsx</title>
<g id="a_node31"><a xlink:href="app/login/page.tsx" xlink:title="page.tsx">
<path fill="#bbfeff" stroke="black" d="M88.08,-965.29C88.08,-965.29 45.92,-965.29 45.92,-965.29 42.96,-965.29 40,-962.33 40,-959.37 40,-959.37 40,-953.45 40,-953.45 40,-950.5 42.96,-947.54 45.92,-947.54 45.92,-947.54 88.08,-947.54 88.08,-947.54 91.04,-947.54 94,-950.5 94,-953.45 94,-953.45 94,-959.37 94,-959.37 94,-962.33 91.04,-965.29 88.08,-965.29"/>
<text text-anchor="start" x="49.75" y="-952.74" font-family="Helvetica,sans-Serif" font-size="9.00">page.tsx</text>
</a>
</g>
</g>
<!-- app/login/page.tsx&#45;&gt;components/ui/card.tsx -->
<g id="edge47" class="edge">
<title>app/login/page.tsx&#45;&gt;components/ui/card.tsx</title>
<path fill="none" stroke="#000000" stroke-width="2" stroke-opacity="0.200000" d="M84.17,-947.13C96.91,-938.8 113.76,-925.32 121.5,-908.41 137.32,-873.85 107.37,-251.03 134.5,-224.41 185.66,-174.22 243.94,-174.89 295.75,-224.41 309.98,-238.01 291.19,-386.25 303.75,-401.41 310.7,-409.79 321.37,-414 332,-415.98"/>
<polygon fill="#000000" fill-opacity="0.200000" stroke="#000000" stroke-width="2" stroke-opacity="0.200000" points="331.61,-418.04 337.84,-416.76 332.17,-413.88 331.61,-418.04"/>
</g>
<!-- app/login/page.tsx&#45;&gt;components/ui/button.tsx -->
<g id="edge46" class="edge">
<title>app/login/page.tsx&#45;&gt;components/ui/button.tsx</title>
<path fill="none" stroke="#000000" stroke-width="2" stroke-opacity="0.200000" d="M84.17,-947.13C96.91,-938.8 113.76,-925.32 121.5,-908.41 137.32,-873.85 107.37,-251.03 134.5,-224.41 185.66,-174.22 244.1,-174.72 295.75,-224.41 312.34,-240.37 289.12,-413.64 303.75,-431.41 310.61,-439.75 321.17,-443.96 331.71,-445.95"/>
<polygon fill="#000000" fill-opacity="0.200000" stroke="#000000" stroke-width="2" stroke-opacity="0.200000" points="331.26,-448.01 337.49,-446.74 331.83,-443.85 331.26,-448.01"/>
</g>
<!-- app/login/page.tsx&#45;&gt;lib/auth.ts -->
<g id="edge48" class="edge">
<title>app/login/page.tsx&#45;&gt;lib/auth.ts</title>
<path fill="none" stroke="#000000" stroke-width="2" stroke-opacity="0.200000" d="M84.17,-947.13C96.91,-938.81 113.77,-925.32 121.5,-908.41 138.22,-871.82 105.8,-212.6 134.5,-184.41 229.92,-90.69 345.04,-123.45 432.75,-224.41 479.37,-278.08 481.93,-510.71 481.67,-578.07"/>
<polygon fill="#000000" fill-opacity="0.200000" stroke="#000000" stroke-width="2" stroke-opacity="0.200000" points="479.57,-578.05 481.64,-584.07 483.77,-578.08 479.57,-578.05"/>
</g>
<!-- lib/utils.ts&#45;&gt;node_modules/.pnpm -->
<g id="edge71" class="edge">
<title>lib/utils.ts&#45;&gt;node_modules/.pnpm</title>
<path fill="none" stroke="#000000" stroke-opacity="0.200000" d="M509.91,-620.32C515.13,-618.17 520.23,-615.28 524.25,-611.41 551.58,-585.07 563.24,-540.16 567.74,-515.99"/>
<polygon fill="#000000" fill-opacity="0.200000" stroke="#000000" stroke-opacity="0.200000" points="569.8,-516.4 568.75,-510.13 565.66,-515.69 569.8,-516.4"/>
</g>
<!-- middleware.ts -->
<g id="node33" class="node">
<title>middleware.ts</title>
<g id="a_node33"><a xlink:href="middleware.ts" xlink:title="middleware.ts">
<path fill="#ddfeff" stroke="black" d="M398.83,-735.29C398.83,-735.29 337.67,-735.29 337.67,-735.29 334.71,-735.29 331.75,-732.33 331.75,-729.37 331.75,-729.37 331.75,-723.45 331.75,-723.45 331.75,-720.5 334.71,-717.54 337.67,-717.54 337.67,-717.54 398.83,-717.54 398.83,-717.54 401.79,-717.54 404.75,-720.5 404.75,-723.45 404.75,-723.45 404.75,-729.37 404.75,-729.37 404.75,-732.33 401.79,-735.29 398.83,-735.29"/>
<text text-anchor="middle" x="368.25" y="-722.74" font-family="Helvetica,sans-Serif" font-size="9.00">middleware.ts</text>
</a>
</g>
</g>
<!-- middleware.ts&#45;&gt;lib/auth.ts -->
<g id="edge72" class="edge">
<title>middleware.ts&#45;&gt;lib/auth.ts</title>
<path fill="none" stroke="#000000" stroke-width="2" stroke-opacity="0.200000" d="M405.13,-723.9C415.53,-721.37 425.91,-716.73 432.75,-708.41 446.49,-691.71 427.66,-628.63 440.75,-611.41 443.03,-608.41 445.98,-606.01 449.24,-604.09"/>
<polygon fill="#000000" fill-opacity="0.200000" stroke="#000000" stroke-width="2" stroke-opacity="0.200000" points="455.39,-603.45 449.07,-604.17 453.56,-599.67 455.39,-603.45"/>
</g>
<!-- next.config.js -->
<g id="node34" class="node">
<title>next.config.js</title>
<g id="a_node34"><a xlink:href="next.config.js" xlink:title="no&#45;orphans">
<path fill="#ccffcc" stroke="orange" d="M95.71,-1249.29C95.71,-1249.29 38.29,-1249.29 38.29,-1249.29 35.33,-1249.29 32.38,-1246.33 32.38,-1243.37 32.38,-1243.37 32.38,-1237.45 32.38,-1237.45 32.38,-1234.5 35.33,-1231.54 38.29,-1231.54 38.29,-1231.54 95.71,-1231.54 95.71,-1231.54 98.67,-1231.54 101.62,-1234.5 101.62,-1237.45 101.62,-1237.45 101.62,-1243.37 101.62,-1243.37 101.62,-1246.33 98.67,-1249.29 95.71,-1249.29"/>
<text text-anchor="middle" x="67" y="-1236.74" font-family="Helvetica,sans-Serif" font-size="9.00" fill="orange">next.config.js</text>
</a>
</g>
</g>
<!-- postcss.config.js -->
<g id="node35" class="node">
<title>postcss.config.js</title>
<g id="a_node35"><a xlink:href="postcss.config.js" xlink:title="no&#45;orphans">
<path fill="#ccffcc" stroke="orange" d="M102.46,-1279.29C102.46,-1279.29 31.54,-1279.29 31.54,-1279.29 28.58,-1279.29 25.62,-1276.33 25.62,-1273.37 25.62,-1273.37 25.62,-1267.45 25.62,-1267.45 25.62,-1264.5 28.58,-1261.54 31.54,-1261.54 31.54,-1261.54 102.46,-1261.54 102.46,-1261.54 105.42,-1261.54 108.38,-1264.5 108.38,-1267.45 108.38,-1267.45 108.38,-1273.37 108.38,-1273.37 108.38,-1276.33 105.42,-1279.29 102.46,-1279.29"/>
<text text-anchor="middle" x="67" y="-1266.74" font-family="Helvetica,sans-Serif" font-size="9.00" fill="orange">postcss.config.js</text>
</a>
</g>
</g>
<!-- tailwind.config.ts -->
<g id="node36" class="node">
<title>tailwind.config.ts</title>
<g id="a_node36"><a xlink:href="tailwind.config.ts" xlink:title="tailwind.config.ts">
<path fill="#ddfeff" stroke="black" d="M518.33,-137.29C518.33,-137.29 446.67,-137.29 446.67,-137.29 443.71,-137.29 440.75,-134.33 440.75,-131.37 440.75,-131.37 440.75,-125.45 440.75,-125.45 440.75,-122.5 443.71,-119.54 446.67,-119.54 446.67,-119.54 518.33,-119.54 518.33,-119.54 521.29,-119.54 524.25,-122.5 524.25,-125.45 524.25,-125.45 524.25,-131.37 524.25,-131.37 524.25,-134.33 521.29,-137.29 518.33,-137.29"/>
<text text-anchor="middle" x="482.5" y="-124.74" font-family="Helvetica,sans-Serif" font-size="9.00">tailwind.config.ts</text>
</a>
</g>
</g>
<!-- tailwind.config.ts&#45;&gt;node_modules/.pnpm -->
<g id="edge73" class="edge">
<title>tailwind.config.ts&#45;&gt;node_modules/.pnpm</title>
<path fill="none" stroke="#000000" stroke-opacity="0.200000" d="M514.1,-137.61C518,-139.93 521.56,-142.82 524.25,-146.41 564.81,-200.64 569.64,-420.73 570.19,-482.95"/>
<polygon fill="none" stroke="#000000" stroke-opacity="0.200000" points="568.09,-482.85 570.23,-488.84 572.29,-482.82 568.09,-482.85"/>
</g>
</g>
</svg>
